Jinko-Regular.ufo
<glyph name="ampersand" format="1">
  <advance width="1420"/>
  <unicode hex="0026"/>
  <outline>
    <contour>
      <point x="594" y="-23" type="curve" smooth="yes"/>
      <point x="284" y="-23"/>
      <point x="51" y="125"/>
      <point x="51" y="388" type="curve" smooth="yes"/>
      <point x="51" y="549"/>
      <point x="140" y="718"/>
      <point x="354" y="814" type="curve" smooth="no"/>
      <point x="265" y="897"/>
      <point x="152" y="1031"/>
      <point x="152" y="1172" type="curve" smooth="yes"/>
      <point x="152" y="1337"/>
      <point x="257" y="1503"/>
      <point x="609" y="1503" type="curve" smooth="yes"/>
      <point x="889" y="1503"/>
      <point x="1013" y="1348"/>
      <point x="1006" y="1170" type="curve" smooth="no"/>
      <point x="1007" y="1041"/>
      <point x="922" y="899"/>
      <point x="587" y="771" type="curve" smooth="no"/>
      <point x="594" y="764"/>
      <point x="1046" y="305"/>
      <point x="1053" y="298" type="curve" smooth="no"/>
      <point x="1115" y="363"/>
      <point x="1172" y="510"/>
      <point x="1189" y="670" type="curve" smooth="no"/>
      <point x="1328" y="654" type="line" smooth="no"/>
      <point x="1315" y="483"/>
      <point x="1257" y="312"/>
      <point x="1152" y="205" type="curve" smooth="yes"/>
      <point x="1151" y="205"/>
      <point x="1381" y="0"/>
      <point x="1381" y="0" type="curve" smooth="no"/>
      <point x="1166" y="0" type="line" smooth="no"/>
      <point x="1166" y="0"/>
      <point x="1107" y="55"/>
      <point x="1047" y="111" type="curve" smooth="no"/>
      <point x="916" y="13"/>
      <point x="752" y="-23"/>
    </contour>
    <contour>
      <point x="614" y="119" type="curve" smooth="yes"/>
      <point x="765" y="119"/>
      <point x="835" y="145"/>
      <point x="941" y="207" type="curve" smooth="no"/>
      <point x="929" y="219"/>
      <point x="451" y="700"/>
      <point x="439" y="712" type="curve" smooth="no"/>
      <point x="344" y="666"/>
      <point x="209" y="547"/>
      <point x="209" y="392" type="curve" smooth="yes"/>
      <point x="209" y="242"/>
      <point x="321" y="119"/>
    </contour>
    <contour>
      <point x="493" y="870" type="curve" smooth="no"/>
      <point x="748" y="953"/>
      <point x="859" y="1061"/>
      <point x="859" y="1169" type="curve" smooth="yes"/>
      <point x="859" y="1273"/>
      <point x="812" y="1379"/>
      <point x="586" y="1379" type="curve" smooth="no"/>
      <point x="397" y="1372"/>
      <point x="321" y="1295"/>
      <point x="313" y="1170" type="curve" smooth="no"/>
      <point x="313" y="1083"/>
      <point x="361" y="1014"/>
    </contour>
  </outline>
</glyph>
<glyph name="plus" format="1">
  <advance width="1200"/>
  <unicode hex="002b"/>
  <outline>
    <contour>
      <point x="525" y="76" type="line" smooth="no"/>
      <point x="525" y="495" type="line" smooth="no"/>
      <point x="93" y="495" type="line" smooth="no"/>
      <point x="93" y="632" type="line" smooth="no"/>
      <point x="525" y="632" type="line" smooth="no"/>
      <point x="525" y="1038" type="line" smooth="no"/>
      <point x="663" y="1038" type="line" smooth="no"/>
      <point x="663" y="632" type="line" smooth="no"/>
      <point x="1106" y="632" type="line" smooth="no"/>
      <point x="1106" y="495" type="line" smooth="no"/>
      <point x="663" y="495" type="line" smooth="no"/>
      <point x="663" y="76" type="line" smooth="no"/>
    </contour>
  </outline>
</glyph>
<glyph name="comma" format="1">
  <advance width="401"/>
  <unicode hex="002c"/>
  <outline>
    <contour>
      <point x="103" y="-232" type="line" smooth="no"/>
      <point x="132" y="279" type="line" smooth="no"/>
      <point x="325" y="279" type="line" smooth="no"/>
      <point x="212" y="-232" type="line" smooth="no"/>
    </contour>
  </outline>
</glyph>
<glyph name="hyphen" format="1">
  <advance width="792"/>
  <unicode hex="002d"/>
  <outline>
    <contour>
      <point x="98" y="562" type="line" smooth="no"/>
      <point x="98" y="717" type="line" smooth="no"/>
      <point x="694" y="717" type="line" smooth="no"/>
      <point x="694" y="562" type="line" smooth="no"/>
    </contour>
  </outline>
</glyph>
<glyph name="slash" format="1">
  <advance width="852"/>
  <unicode hex="002f"/>
  <outline>
    <contour>
      <point x="-5" y="0" type="line" smooth="no"/>
      <point x="684" y="1481" type="line" smooth="no"/>
      <point x="856" y="1481" type="line" smooth="no"/>
      <point x="170" y="0" type="line" smooth="no"/>
    </contour>
  </outline>
</glyph>
<glyph name="one" format="1">
  <advance width="961"/>
  <unicode hex="0031"/>
  <outline>
    <contour>
      <point x="168" y="0" type="line" smooth="no"/>
      <point x="168" y="137" type="line" smooth="no"/>
      <point x="444" y="137" type="line" smooth="no"/>
      <point x="444" y="1265" type="line" smooth="no"/>
      <point x="166" y="1191" type="line" smooth="no"/>
      <point x="166" y="1317" type="line" smooth="no"/>
      <point x="374" y="1360"/>
      <point x="428" y="1410"/>
      <point x="459" y="1481" type="curve" smooth="no"/>
      <point x="626" y="1481" type="line" smooth="no"/>
      <point x="626" y="137" type="line" smooth="no"/>
      <point x="898" y="137" type="line" smooth="no"/>
      <point x="898" y="0" type="line" smooth="no"/>
    </contour>
  </outline>
</glyph>
<glyph name="two" format="1">
  <advance width="1172"/>
  <unicode hex="0032"/>
  <outline>
    <contour>
      <point x="127" y="0" type="line"/>
      <point x="127" y="148" type="line"/>
      <point x="530" y="545"/>
      <point x="853" y="848"/>
      <point x="853" y="1080" type="curve" smooth="yes"/>
      <point x="853" y="1216"/>
      <point x="808" y="1362"/>
      <point x="589" y="1362" type="curve" smooth="yes"/>
      <point x="383" y="1362"/>
      <point x="203" y="1255"/>
      <point x="183" y="1237" type="curve"/>
      <point x="149" y="1376" type="line"/>
      <point x="246" y="1442"/>
      <point x="423" y="1503"/>
      <point x="578" y="1503" type="curve" smooth="yes"/>
      <point x="872" y="1503"/>
      <point x="1025" y="1337"/>
      <point x="1025" y="1098" type="curve" smooth="yes"/>
      <point x="1025" y="805"/>
      <point x="773" y="563"/>
      <point x="328" y="137" type="curve"/>
      <point x="1016" y="137" type="line"/>
      <point x="1016" y="0" type="line"/>
    </contour>
  </outline>
</glyph>
<glyph name="three" format="1">
  <advance width="1164"/>
  <unicode hex="0033"/>
  <outline>
    <contour>
      <point x="541" y="-23" type="curve" smooth="yes"/>
      <point x="319" y="-23"/>
      <point x="172" y="55"/>
      <point x="128" y="87" type="curve"/>
      <point x="128" y="218" type="line"/>
      <point x="172" y="218" type="line"/>
      <point x="216" y="180"/>
      <point x="366" y="118"/>
      <point x="549" y="118" type="curve" smooth="yes"/>
      <point x="749" y="118"/>
      <point x="906" y="181"/>
      <point x="906" y="398" type="curve" smooth="yes"/>
      <point x="906" y="593"/>
      <point x="791" y="730"/>
      <point x="511" y="730" type="curve" smooth="yes"/>
      <point x="357" y="730" type="line"/>
      <point x="357" y="854" type="line"/>
      <point x="500" y="854" type="line" smooth="yes"/>
      <point x="776" y="854"/>
      <point x="846" y="977"/>
      <point x="846" y="1111" type="curve" smooth="yes"/>
      <point x="846" y="1258"/>
      <point x="767" y="1362"/>
      <point x="542" y="1362" type="curve" smooth="yes"/>
      <point x="267" y="1362"/>
      <point x="178" y="1279"/>
      <point x="178" y="1279" type="curve"/>
      <point x="128" y="1279" type="line"/>
      <point x="128" y="1399" type="line"/>
      <point x="225" y="1466"/>
      <point x="367" y="1503"/>
      <point x="546" y="1503" type="curve" smooth="yes"/>
      <point x="898" y="1503"/>
      <point x="1026" y="1317"/>
      <point x="1026" y="1133" type="curve" smooth="yes"/>
      <point x="1026" y="938"/>
      <point x="898" y="833"/>
      <point x="745" y="797" type="curve"/>
      <point x="935" y="756"/>
      <point x="1080" y="612"/>
      <point x="1080" y="404" type="curve" smooth="yes"/>
      <point x="1080" y="108"/>
      <point x="875" y="-23"/>
    </contour>
  </outline>
</glyph>
<glyph name="five" format="1">
  <advance width="1214"/>
  <unicode hex="0035"/>
  <outline>
    <contour>
      <point x="592" y="-23" type="curve" smooth="yes"/>
      <point x="386" y="-23"/>
      <point x="241" y="21"/>
      <point x="142" y="78" type="curve" smooth="no"/>
      <point x="142" y="217" type="line" smooth="no"/>
      <point x="193" y="217" type="line" smooth="no"/>
      <point x="193" y="217"/>
      <point x="286" y="118"/>
      <point x="573" y="118" type="curve" smooth="yes"/>
      <point x="854" y="118"/>
      <point x="941" y="255"/>
      <point x="941" y="400" type="curve" smooth="yes"/>
      <point x="941" y="584"/>
      <point x="861" y="738"/>
      <point x="389" y="774" type="curve" smooth="yes"/>
      <point x="357" y="776"/>
      <point x="182" y="792"/>
      <point x="182" y="792" type="curve" smooth="no"/>
      <point x="182" y="1481" type="line" smooth="no"/>
      <point x="991" y="1481" type="line" smooth="no"/>
      <point x="991" y="1344" type="line" smooth="no"/>
      <point x="342" y="1344" type="line" smooth="no"/>
      <point x="342" y="914" type="line" smooth="yes"/>
      <point x="342" y="913"/>
      <point x="437" y="907"/>
      <point x="468" y="905" type="curve" smooth="yes"/>
      <point x="867" y="884"/>
      <point x="1122" y="728"/>
      <point x="1122" y="420" type="curve" smooth="yes"/>
      <point x="1122" y="125"/>
      <point x="927" y="-23"/>
    </contour>
  </outline>
</glyph>
<glyph name="seven" format="1">
  <advance width="1119"/>
  <unicode hex="0037"/>
  <outline>
    <contour>
      <point x="305" y="0" type="line" smooth="no"/>
      <point x="841" y="1344" type="line" smooth="no"/>
      <point x="284" y="1344" type="line" smooth="no"/>
      <point x="284" y="1151" type="line" smooth="no"/>
      <point x="116" y="1151" type="line" smooth="no"/>
      <point x="116" y="1481" type="line" smooth="no"/>
      <point x="1022" y="1481" type="line" smooth="no"/>
      <point x="1022" y="1349" type="line" smooth="no"/>
      <point x="489" y="0" type="line" smooth="no"/>
    </contour>
  </outline>
</glyph>
<glyph name="nine" format="1">
  <advance width="1221"/>
  <unicode hex="0039"/>
  <outline>
    <contour>
      <point x="348" y="-23" type="curve" smooth="no"/>
      <point x="320" y="104" type="line" smooth="no"/>
      <point x="671" y="106"/>
      <point x="896" y="425"/>
      <point x="933" y="748" type="curve" smooth="no"/>
      <point x="857" y="602"/>
      <point x="659" y="568"/>
      <point x="572" y="568" type="curve" smooth="yes"/>
      <point x="338" y="568"/>
      <point x="111" y="723"/>
      <point x="111" y="1004" type="curve" smooth="yes"/>
      <point x="111" y="1293"/>
      <point x="315" y="1481"/>
      <point x="606" y="1481" type="curve" smooth="yes"/>
      <point x="907" y="1481"/>
      <point x="1115" y="1270"/>
      <point x="1115" y="922" type="curve" smooth="yes"/>
      <point x="1115" y="439"/>
      <point x="841" y="-23"/>
    </contour>
    <contour>
      <point x="591" y="705" type="curve" smooth="yes"/>
      <point x="833" y="705"/>
      <point x="924" y="861"/>
      <point x="924" y="1034" type="curve" smooth="yes"/>
      <point x="924" y="1192"/>
      <point x="817" y="1362"/>
      <point x="623" y="1362" type="curve" smooth="yes"/>
      <point x="366" y="1362"/>
      <point x="288" y="1191"/>
      <point x="288" y="1003" type="curve" smooth="yes"/>
      <point x="288" y="858"/>
      <point x="388" y="705"/>
    </contour>
  </outline>
</glyph>
<glyph name="colon" format="1">
  <advance width="486"/>
  <unicode hex="003a"/>
  <outline>
    <contour>
      <point x="243" y="0" type="curve" smooth="yes"/>
      <point x="159" y="0"/>
      <point x="91" y="68"/>
      <point x="91" y="151" type="curve" smooth="yes"/>
      <point x="91" y="235"/>
      <point x="159" y="303"/>
      <point x="243" y="303" type="curve" smooth="yes"/>
      <point x="326" y="303"/>
      <point x="395" y="235"/>
      <point x="395" y="151" type="curve" smooth="yes"/>
      <point x="395" y="68"/>
      <point x="326" y="0"/>
    </contour>
    <contour>
      <point x="243" y="728" type="curve" smooth="yes"/>
      <point x="159" y="728"/>
      <point x="91" y="797"/>
      <point x="91" y="881" type="curve" smooth="yes"/>
      <point x="91" y="964"/>
      <point x="159" y="1032"/>
      <point x="243" y="1032" type="curve" smooth="yes"/>
      <point x="326" y="1032"/>
      <point x="395" y="964"/>
      <point x="395" y="881" type="curve" smooth="yes"/>
      <point x="395" y="797"/>
      <point x="326" y="728"/>
    </contour>
  </outline>
</glyph>
<glyph name="equal" format="1">
  <advance width="1210"/>
  <unicode hex="003d"/>
  <outline>
    <contour>
      <point x="98" y="335" type="line" smooth="no"/>
      <point x="98" y="460" type="line" smooth="no"/>
      <point x="1112" y="460" type="line" smooth="no"/>
      <point x="1112" y="335" type="line" smooth="no"/>
    </contour>
    <contour>
      <point x="98" y="793" type="line" smooth="no"/>
      <point x="98" y="918" type="line" smooth="no"/>
      <point x="1112" y="918" type="line" smooth="no"/>
      <point x="1112" y="793" type="line" smooth="no"/>
    </contour>
  </outline>
</glyph>
<glyph name="B" format="1">
  <advance width="1277"/>
  <unicode hex="0042"/>
  <outline>
    <contour>
      <point x="142" y="0" type="line"/>
      <point x="142" y="1481" type="line"/>
      <point x="563" y="1481" type="line" smooth="yes"/>
      <point x="909" y="1481"/>
      <point x="1107" y="1391"/>
      <point x="1107" y="1106" type="curve" smooth="yes"/>
      <point x="1107" y="984"/>
      <point x="1025" y="860"/>
      <point x="871" y="820" type="curve"/>
      <point x="871" y="813" type="line"/>
      <point x="1071" y="787"/>
      <point x="1208" y="633"/>
      <point x="1208" y="451" type="curve" smooth="yes"/>
      <point x="1208" y="129"/>
      <point x="980" y="0"/>
      <point x="641" y="0" type="curve" smooth="yes"/>
    </contour>
    <contour>
      <point x="325" y="137" type="line"/>
      <point x="671" y="137" type="line" smooth="yes"/>
      <point x="992" y="137"/>
      <point x="1025" y="328"/>
      <point x="1025" y="451" type="curve" smooth="yes"/>
      <point x="1025" y="616"/>
      <point x="856" y="727"/>
      <point x="672" y="727" type="curve" smooth="yes"/>
      <point x="325" y="727" type="line"/>
    </contour>
    <contour>
      <point x="325" y="856" type="line"/>
      <point x="614" y="856" type="line" smooth="yes"/>
      <point x="835" y="856"/>
      <point x="924" y="969"/>
      <point x="924" y="1111" type="curve" smooth="yes"/>
      <point x="924" y="1246"/>
      <point x="819" y="1344"/>
      <point x="611" y="1344" type="curve" smooth="yes"/>
      <point x="325" y="1344" type="line"/>
    </contour>
  </outline>
</glyph>
<glyph name="C" format="1">
  <advance width="1227"/>
  <unicode hex="0043"/>
  <outline>
    <contour>
      <point x="738" y="-23" type="curve" smooth="yes"/>
      <point x="279" y="-23"/>
      <point x="95" y="257"/>
      <point x="95" y="746" type="curve" smooth="yes"/>
      <point x="95" y="1238"/>
      <point x="347" y="1503"/>
      <point x="745" y="1503" type="curve" smooth="yes"/>
      <point x="940" y="1503"/>
      <point x="1100" y="1433"/>
      <point x="1162" y="1384" type="curve" smooth="no"/>
      <point x="1120" y="1255" type="line" smooth="no"/>
      <point x="1120" y="1255"/>
      <point x="996" y="1362"/>
      <point x="744" y="1362" type="curve" smooth="yes"/>
      <point x="476" y="1362"/>
      <point x="273" y="1202"/>
      <point x="273" y="743" type="curve" smooth="yes"/>
      <point x="273" y="283"/>
      <point x="453" y="118"/>
      <point x="744" y="118" type="curve" smooth="yes"/>
      <point x="980" y="118"/>
      <point x="1127" y="233"/>
      <point x="1127" y="233" type="curve" smooth="no"/>
      <point x="1160" y="105" type="line" smooth="no"/>
      <point x="1081" y="38"/>
      <point x="937" y="-23"/>
    </contour>
  </outline>
</glyph>
<glyph name="D" format="1">
  <advance width="1423"/>
  <unicode hex="0044"/>
  <outline>
    <contour>
      <point x="325" y="137" type="line"/>
      <point x="581" y="137" type="line" smooth="yes"/>
      <point x="964" y="137"/>
      <point x="1144" y="325"/>
      <point x="1144" y="740" type="curve" smooth="yes"/>
      <point x="1144" y="1133"/>
      <point x="949" y="1342"/>
      <point x="586" y="1342" type="curve" smooth="yes"/>
      <point x="325" y="1342" type="line"/>
    </contour>
    <contour>
      <point x="142" y="0" type="line"/>
      <point x="142" y="1481" type="line"/>
      <point x="559" y="1481" type="line" smooth="yes"/>
      <point x="1041" y="1481"/>
      <point x="1326" y="1246"/>
      <point x="1326" y="740" type="curve" smooth="yes"/>
      <point x="1326" y="242"/>
      <point x="1074" y="0"/>
      <point x="554" y="0" type="curve" smooth="yes"/>
    </contour>
  </outline>
</glyph>
<glyph name="E" format="1">
  <advance width="1059"/>
  <unicode hex="0045"/>
  <outline>
    <contour>
      <point x="142" y="0" type="line"/>
      <point x="142" y="1481" type="line"/>
      <point x="962" y="1481" type="line"/>
      <point x="962" y="1344" type="line"/>
      <point x="325" y="1344" type="line"/>
      <point x="325" y="851" type="line"/>
      <point x="897" y="851" type="line"/>
      <point x="897" y="715" type="line"/>
      <point x="325" y="715" type="line"/>
      <point x="325" y="137" type="line"/>
      <point x="983" y="137" type="line"/>
      <point x="983" y="0" type="line"/>
    </contour>
  </outline>
</glyph>
<glyph name="F" format="1">
  <advance width="994"/>
  <unicode hex="0046"/>
  <outline>
    <contour>
      <point x="135" y="0" type="line" smooth="no"/>
      <point x="135" y="1481" type="line" smooth="no"/>
      <point x="965" y="1481" type="line" smooth="no"/>
      <point x="965" y="1343" type="line" smooth="no"/>
      <point x="318" y="1343" type="line" smooth="no"/>
      <point x="318" y="855" type="line" smooth="no"/>
      <point x="907" y="855" type="line" smooth="no"/>
      <point x="907" y="717" type="line" smooth="no"/>
      <point x="318" y="717" type="line" smooth="no"/>
      <point x="318" y="0" type="line" smooth="no"/>
    </contour>
  </outline>
</glyph>
<glyph name="H" format="1">
  <advance width="1404"/>
  <unicode hex="0048"/>
  <outline>
    <contour>
      <point x="142" y="0" type="line"/>
      <point x="142" y="1481" type="line"/>
      <point x="325" y="1481" type="line"/>
      <point x="325" y="830" type="line"/>
      <point x="1079" y="830" type="line"/>
      <point x="1079" y="1481" type="line"/>
      <point x="1262" y="1481" type="line"/>
      <point x="1262" y="0" type="line"/>
      <point x="1079" y="0" type="line"/>
      <point x="1079" y="697" type="line"/>
      <point x="325" y="697" type="line"/>
      <point x="325" y="0" type="line"/>
    </contour>
  </outline>
</glyph>
<glyph name="I" format="1">
  <advance width="828"/>
  <unicode hex="0049"/>
  <outline>
    <contour>
      <point x="99" y="0" type="line" smooth="no"/>
      <point x="99" y="125" type="line" smooth="no"/>
      <point x="323" y="125" type="line" smooth="no"/>
      <point x="323" y="1355" type="line" smooth="no"/>
      <point x="99" y="1355" type="line" smooth="no"/>
      <point x="99" y="1481" type="line" smooth="no"/>
      <point x="730" y="1481" type="line" smooth="no"/>
      <point x="730" y="1355" type="line" smooth="no"/>
      <point x="506" y="1355" type="line" smooth="no"/>
      <point x="506" y="125" type="line" smooth="no"/>
      <point x="730" y="125" type="line" smooth="no"/>
      <point x="730" y="0" type="line" smooth="no"/>
    </contour>
  </outline>
</glyph>
<glyph name="J" format="1">
  <advance width="884"/>
  <unicode hex="004a"/>
  <outline>
    <contour>
      <point x="378" y="-19" type="curve" smooth="yes"/>
      <point x="224" y="-19"/>
      <point x="97" y="53"/>
      <point x="95" y="54" type="curve" smooth="no"/>
      <point x="127" y="184" type="line" smooth="no"/>
      <point x="134" y="181"/>
      <point x="250" y="119"/>
      <point x="354" y="119" type="curve" smooth="yes"/>
      <point x="494" y="119"/>
      <point x="568" y="191"/>
      <point x="568" y="432" type="curve" smooth="yes"/>
      <point x="568" y="1344" type="line" smooth="no"/>
      <point x="329" y="1344" type="line" smooth="no"/>
      <point x="329" y="1481" type="line" smooth="no"/>
      <point x="751" y="1481" type="line" smooth="no"/>
      <point x="751" y="430" type="line" smooth="yes"/>
      <point x="751" y="133"/>
      <point x="647" y="-19"/>
    </contour>
  </outline>
</glyph>
<glyph name="K" format="1">
  <advance width="1253"/>
  <unicode hex="004b"/>
  <outline>
    <contour>
      <point x="135" y="0" type="line" smooth="no"/>
      <point x="135" y="1481" type="line" smooth="no"/>
      <point x="318" y="1481" type="line" smooth="no"/>
      <point x="318" y="707" type="line" smooth="no"/>
      <point x="319" y="707" type="line" smooth="no"/>
      <point x="602" y="1029" type="line" smooth="no"/>
      <point x="624" y="1050"/>
      <point x="982" y="1481"/>
      <point x="982" y="1481" type="curve" smooth="no"/>
      <point x="1219" y="1481" type="line" smooth="no"/>
      <point x="705" y="892" type="line" smooth="no"/>
      <point x="1246" y="0" type="line" smooth="no"/>
      <point x="1037" y="0" type="line" smooth="no"/>
      <point x="1030" y="12"/>
      <point x="736" y="509"/>
      <point x="645" y="662" type="curve" smooth="no"/>
      <point x="578" y="772" type="line" smooth="no"/>
      <point x="318" y="495" type="line" smooth="no"/>
      <point x="318" y="0" type="line" smooth="no"/>
    </contour>
  </outline>
</glyph>
<glyph name="L" format="1">
  <advance width="1021"/>
  <unicode hex="004c"/>
  <outline>
    <contour>
      <point x="135" y="0" type="line" smooth="no"/>
      <point x="135" y="1481" type="line" smooth="no"/>
      <point x="318" y="1481" type="line" smooth="no"/>
      <point x="318" y="137" type="line" smooth="no"/>
      <point x="986" y="137" type="line" smooth="no"/>
      <point x="986" y="0" type="line" smooth="no"/>
    </contour>
  </outline>
</glyph>
<glyph name="M" format="1">
  <advance width="1583"/>
  <unicode hex="004D"/>
  <outline>
    <contour>
      <point x="142" y="0" type="line"/>
      <point x="142" y="1481" type="line"/>
      <point x="325" y="1481" type="line"/>
      <point x="800" y="636" type="line"/>
      <point x="1273" y="1481" type="line"/>
      <point x="1448" y="1481" type="line"/>
      <point x="1448" y="0" type="line"/>
      <point x="1266" y="0" type="line"/>
      <point x="1266" y="955" type="line"/>
      <point x="1273" y="1171" type="line"/>
      <point x="873" y="449" type="line"/>
      <point x="729" y="449" type="line"/>
      <point x="318" y="1171" type="line"/>
      <point x="325" y="955" type="line"/>
      <point x="325" y="0" type="line"/>
    </contour>
  </outline>
</glyph>
<glyph name="N" format="1">
  <advance width="1507"/>
  <unicode hex="004E"/>
  <outline>
    <contour>
      <point x="142" y="0" type="line"/>
      <point x="142" y="1481" type="line"/>
      <point x="288" y="1481" type="line"/>
      <point x="288" y="1481"/>
      <point x="1194" y="286"/>
      <point x="1196" y="283" type="curve"/>
      <point x="1190" y="536" type="line"/>
      <point x="1190" y="1481" type="line"/>
      <point x="1372" y="1481" type="line"/>
      <point x="1372" y="0" type="line"/>
      <point x="1211" y="0" type="line"/>
      <point x="318" y="1180" type="line"/>
      <point x="324" y="981" type="line"/>
      <point x="324" y="0" type="line"/>
    </contour>
  </outline>
</glyph>
<glyph name="P" format="1">
  <advance width="1145"/>
  <unicode hex="0050"/>
  <outline>
    <contour>
      <point x="135" y="0" type="line" smooth="no"/>
      <point x="135" y="1481" type="line" smooth="no"/>
      <point x="537" y="1481" type="line" smooth="yes"/>
      <point x="894" y="1481"/>
      <point x="1078" y="1359"/>
      <point x="1078" y="1054" type="curve" smooth="yes"/>
      <point x="1078" y="755"/>
      <point x="837" y="622"/>
      <point x="464" y="622" type="curve" smooth="yes"/>
      <point x="318" y="622" type="line" smooth="no"/>
      <point x="318" y="0" type="line" smooth="no"/>
    </contour>
    <contour>
      <point x="318" y="759" type="line" smooth="no"/>
      <point x="454" y="759" type="line" smooth="yes"/>
      <point x="751" y="759"/>
      <point x="896" y="844"/>
      <point x="896" y="1056" type="curve" smooth="yes"/>
      <point x="896" y="1245"/>
      <point x="821" y="1344"/>
      <point x="535" y="1344" type="curve" smooth="yes"/>
      <point x="318" y="1344" type="line" smooth="no"/>
    </contour>
  </outline>
</glyph>
<glyph name="R" format="1">
  <advance width="1264"/>
  <unicode hex="0052"/>
  <outline>
    <contour>
      <point x="142" y="0" type="line"/>
      <point x="142" y="1481" type="line"/>
      <point x="649" y="1481" type="line" smooth="yes"/>
      <point x="890" y="1481"/>
      <point x="1150" y="1422"/>
      <point x="1150" y="1100" type="curve" smooth="yes"/>
      <point x="1150" y="899"/>
      <point x="1053" y="774"/>
      <point x="854" y="708" type="curve"/>
      <point x="1226" y="47" type="line"/>
      <point x="1226" y="0" type="line"/>
      <point x="1050" y="0" type="line"/>
      <point x="673" y="685" type="line"/>
      <point x="325" y="685" type="line"/>
      <point x="325" y="0" type="line"/>
    </contour>
    <contour>
      <point x="325" y="822" type="line"/>
      <point x="648" y="822" type="line" smooth="yes"/>
      <point x="877" y="822"/>
      <point x="973" y="935"/>
      <point x="973" y="1098" type="curve" smooth="yes"/>
      <point x="973" y="1246"/>
      <point x="882" y="1344"/>
      <point x="664" y="1344" type="curve" smooth="yes"/>
      <point x="325" y="1344" type="line"/>
    </contour>
  </outline>
</glyph>
<glyph name="S" format="1">
  <advance width="1214"/>
  <unicode hex="0053"/>
  <outline>
    <contour>
      <point x="591" y="-23" type="curve" smooth="yes"/>
      <point x="385" y="-23"/>
      <point x="211" y="37"/>
      <point x="82" y="126" type="curve"/>
      <point x="146" y="258" type="line"/>
      <point x="165" y="258" type="line"/>
      <point x="284" y="163"/>
      <point x="452" y="118"/>
      <point x="587" y="118" type="curve" smooth="yes"/>
      <point x="869" y="118"/>
      <point x="960" y="248"/>
      <point x="960" y="373" type="curve" smooth="yes"/>
      <point x="960" y="539"/>
      <point x="909" y="602"/>
      <point x="553" y="686" type="curve" smooth="yes"/>
      <point x="245" y="758"/>
      <point x="112" y="864"/>
      <point x="112" y="1098" type="curve" smooth="yes"/>
      <point x="112" y="1349"/>
      <point x="355" y="1503"/>
      <point x="650" y="1503" type="curve" smooth="yes"/>
      <point x="814" y="1503"/>
      <point x="960" y="1469"/>
      <point x="1082" y="1397" type="curve"/>
      <point x="1037" y="1259" type="line"/>
      <point x="1020" y="1259" type="line"/>
      <point x="949" y="1305"/>
      <point x="819" y="1362"/>
      <point x="667" y="1362" type="curve" smooth="yes"/>
      <point x="401" y="1362"/>
      <point x="280" y="1233"/>
      <point x="280" y="1102" type="curve" smooth="yes"/>
      <point x="280" y="988"/>
      <point x="323" y="899"/>
      <point x="610" y="834" type="curve" smooth="yes"/>
      <point x="976" y="752"/>
      <point x="1134" y="665"/>
      <point x="1134" y="387" type="curve" smooth="yes"/>
      <point x="1134" y="115"/>
      <point x="895" y="-23"/>
    </contour>
  </outline>
</glyph>
<glyph name="U" format="1">
  <advance width="1423"/>
  <unicode hex="0055"/>
  <outline>
    <contour>
      <point x="710" y="-23" type="curve" smooth="yes"/>
      <point x="363" y="-23"/>
      <point x="116" y="145"/>
      <point x="116" y="478" type="curve" smooth="yes"/>
      <point x="116" y="1481" type="line" smooth="no"/>
      <point x="298" y="1481" type="line" smooth="no"/>
      <point x="298" y="476" type="line" smooth="yes"/>
      <point x="298" y="225"/>
      <point x="449" y="118"/>
      <point x="710" y="118" type="curve" smooth="yes"/>
      <point x="971" y="118"/>
      <point x="1125" y="225"/>
      <point x="1125" y="476" type="curve" smooth="yes"/>
      <point x="1125" y="1481" type="line" smooth="no"/>
      <point x="1308" y="1481" type="line" smooth="no"/>
      <point x="1308" y="478" type="line" smooth="yes"/>
      <point x="1308" y="146"/>
      <point x="1071" y="-23"/>
    </contour>
  </outline>
</glyph>
<glyph name="V" format="1">
  <advance width="1312"/>
  <unicode hex="0056"/>
  <outline>
    <contour>
      <point x="530" y="0" type="line" smooth="no"/>
      <point x="-17" y="1481" type="line" smooth="no"/>
      <point x="173" y="1481" type="line" smooth="no"/>
      <point x="537" y="464" type="line" smooth="no"/>
      <point x="660" y="115" type="line" smooth="no"/>
      <point x="661" y="115" type="line" smooth="no"/>
      <point x="784" y="465" type="line" smooth="no"/>
      <point x="1137" y="1481" type="line" smooth="no"/>
      <point x="1329" y="1481" type="line" smooth="no"/>
      <point x="792" y="0" type="line" smooth="no"/>
    </contour>
  </outline>
</glyph>
<glyph name="W" format="1">
  <advance width="1963"/>
  <unicode hex="0057"/>
  <outline>
    <contour>
      <point x="410" y="0" type="line" smooth="no"/>
      <point x="12" y="1481" type="line" smooth="no"/>
      <point x="190" y="1481" type="line" smooth="no"/>
      <point x="441" y="530" type="line" smooth="no"/>
      <point x="504" y="284" type="line" smooth="no"/>
      <point x="507" y="284" type="line" smooth="no"/>
      <point x="577" y="529" type="line" smooth="no"/>
      <point x="860" y="1481" type="line" smooth="no"/>
      <point x="1119" y="1481" type="line" smooth="no"/>
      <point x="1397" y="526" type="line" smooth="no"/>
      <point x="1463" y="285" type="line" smooth="no"/>
      <point x="1524" y="525" type="line" smooth="no"/>
      <point x="1778" y="1481" type="line" smooth="no"/>
      <point x="1952" y="1481" type="line" smooth="no"/>
      <point x="1542" y="0" type="line" smooth="no"/>
      <point x="1366" y="0" type="line" smooth="no"/>
      <point x="993" y="1353" type="line" smooth="no"/>
      <point x="585" y="0" type="line" smooth="no"/>
    </contour>
  </outline>
</glyph>
<glyph name="X" format="1">
  <advance width="1371"/>
  <unicode hex="0058"/>
  <outline>
    <contour>
      <point x="-1" y="0" type="line" smooth="no"/>
      <point x="581" y="741" type="line" smooth="no"/>
      <point x="31" y="1481" type="line" smooth="no"/>
      <point x="218" y="1481" type="line" smooth="no"/>
      <point x="566" y="1004" type="line" smooth="no"/>
      <point x="681" y="848" type="line" smooth="no"/>
      <point x="802" y="1004" type="line" smooth="no"/>
      <point x="1159" y="1481" type="line" smooth="no"/>
      <point x="1372" y="1481" type="line" smooth="no"/>
      <point x="783" y="722" type="line" smooth="no"/>
      <point x="1337" y="0" type="line" smooth="no"/>
      <point x="1144" y="0" type="line" smooth="no"/>
      <point x="818" y="436" type="line" smooth="no"/>
      <point x="682" y="617" type="line" smooth="no"/>
      <point x="541" y="437" type="line" smooth="no"/>
      <point x="209" y="0" type="line" smooth="no"/>
    </contour>
  </outline>
</glyph>
<glyph name="Z" format="1">
  <advance width="1101"/>
  <unicode hex="005a"/>
  <outline>
    <contour>
      <point x="91" y="0" type="line" smooth="no"/>
      <point x="91" y="144" type="line" smooth="no"/>
      <point x="834" y="1344" type="line" smooth="no"/>
      <point x="98" y="1344" type="line" smooth="no"/>
      <point x="98" y="1481" type="line" smooth="no"/>
      <point x="1021" y="1481" type="line" smooth="no"/>
      <point x="1021" y="1345" type="line" smooth="no"/>
      <point x="284" y="137" type="line" smooth="no"/>
      <point x="1045" y="137" type="line" smooth="no"/>
      <point x="1045" y="0" type="line" smooth="no"/>
    </contour>
  </outline>
</glyph>
<glyph name="bracketleft" format="1">
  <advance width="623"/>
  <unicode hex="005b"/>
  <outline>
    <contour>
      <point x="95" y="-211" type="line" smooth="no"/>
      <point x="95" y="1481" type="line" smooth="no"/>
      <point x="540" y="1481" type="line" smooth="no"/>
      <point x="540" y="1344" type="line" smooth="no"/>
      <point x="277" y="1344" type="line" smooth="no"/>
      <point x="277" y="-75" type="line" smooth="no"/>
      <point x="540" y="-75" type="line" smooth="no"/>
      <point x="540" y="-211" type="line" smooth="no"/>
    </contour>
  </outline>
</glyph>
<glyph name="bracketright" format="1">
  <advance width="624"/>
  <unicode hex="005d"/>
  <outline>
    <contour>
      <point x="85" y="-211" type="line" smooth="no"/>
      <point x="85" y="-75" type="line" smooth="no"/>
      <point x="347" y="-75" type="line" smooth="no"/>
      <point x="347" y="1344" type="line" smooth="no"/>
      <point x="85" y="1344" type="line" smooth="no"/>
      <point x="85" y="1481" type="line" smooth="no"/>
      <point x="530" y="1481" type="line" smooth="no"/>
      <point x="530" y="-211" type="line" smooth="no"/>
    </contour>
  </outline>
</glyph>
<glyph name="asciicircum" format="1">
  <advance width="1358"/>
  <unicode hex="005e"/>
  <outline>
    <contour>
      <point x="75" y="692" type="line" smooth="no"/>
      <point x="550" y="1481" type="line" smooth="no"/>
      <point x="781" y="1481" type="line" smooth="no"/>
      <point x="1284" y="694" type="line" smooth="no"/>
      <point x="1059" y="694" type="line" smooth="no"/>
      <point x="666" y="1366" type="line" smooth="no"/>
      <point x="290" y="692" type="line" smooth="no"/>
    </contour>
  </outline>
</glyph>
<glyph name="underscore" format="1">
  <advance width="718"/>
  <unicode hex="005f"/>
  <outline>
    <contour>
      <point x="6" y="-120" type="line" smooth="no"/>
      <point x="6" y="0" type="line" smooth="no"/>
      <point x="712" y="0" type="line" smooth="no"/>
      <point x="712" y="-120" type="line" smooth="no"/>
    </contour>
  </outline>
</glyph>
<glyph name="grave" format="1">
  <advance width="422"/>
  <unicode hex="0060"/>
  <outline>
    <contour>
      <point x="417" y="1123" type="line" smooth="no"/>
      <point x="294" y="1123" type="line" smooth="no"/>
      <point x="11" y="1466" type="line" smooth="no"/>
      <point x="236" y="1466" type="line" smooth="no"/>
    </contour>
  </outline>
</glyph>
<glyph name="a" format="1">
  <advance width="1060"/>
  <unicode hex="0061"/>
  <outline>
    <contour>
      <point x="410" y="-21" type="curve" smooth="yes"/>
      <point x="216" y="-21"/>
      <point x="84" y="98"/>
      <point x="82" y="274" type="curve"/>
      <point x="82" y="573"/>
      <point x="335" y="630"/>
      <point x="764" y="630" type="curve"/>
      <point x="764" y="843"/>
      <point x="696" y="918"/>
      <point x="522" y="918" type="curve" smooth="yes"/>
      <point x="359" y="918"/>
      <point x="216" y="861"/>
      <point x="188" y="848" type="curve"/>
      <point x="148" y="981" type="line"/>
      <point x="176" y="999"/>
      <point x="333" y="1058"/>
      <point x="523" y="1058" type="curve" smooth="yes"/>
      <point x="871" y="1058"/>
      <point x="947" y="866"/>
      <point x="947" y="619" type="curve" smooth="yes"/>
      <point x="947" y="0" type="line"/>
      <point x="764" y="0" type="line"/>
      <point x="764" y="239" type="line"/>
      <point x="708" y="94"/>
      <point x="598" y="-21"/>
    </contour>
    <contour>
      <point x="440" y="116" type="curve" smooth="yes"/>
      <point x="651" y="116"/>
      <point x="764" y="282"/>
      <point x="764" y="512" type="curve"/>
      <point x="345" y="511"/>
      <point x="251" y="419"/>
      <point x="251" y="282" type="curve" smooth="yes"/>
      <point x="251" y="170"/>
      <point x="350" y="116"/>
    </contour>
  </outline>
</glyph>
<glyph name="b" format="1">
  <advance width="1168"/>
  <unicode hex="0062"/>
  <outline>
    <contour>
      <point x="603" y="-21" type="curve" smooth="yes"/>
      <point x="484" y="-21"/>
      <point x="373" y="27"/>
      <point x="315" y="101" type="curve"/>
      <point x="315" y="0" type="line"/>
      <point x="133" y="0" type="line"/>
      <point x="133" y="1481" type="line"/>
      <point x="315" y="1481" type="line"/>
      <point x="315" y="888" type="line"/>
      <point x="372" y="996"/>
      <point x="534" y="1058"/>
      <point x="642" y="1058" type="curve" smooth="yes"/>
      <point x="878" y="1058"/>
      <point x="1071" y="891"/>
      <point x="1071" y="531" type="curve" smooth="yes"/>
      <point x="1071" y="178"/>
      <point x="879" y="-21"/>
    </contour>
    <contour>
      <point x="588" y="119" type="curve" smooth="yes"/>
      <point x="792" y="119"/>
      <point x="894" y="287"/>
      <point x="894" y="517" type="curve" smooth="yes"/>
      <point x="894" y="776"/>
      <point x="772" y="918"/>
      <point x="601" y="918" type="curve" smooth="yes"/>
      <point x="471" y="918"/>
      <point x="338" y="817"/>
      <point x="315" y="764" type="curve"/>
      <point x="315" y="198" type="line"/>
      <point x="390" y="153"/>
      <point x="489" y="119"/>
    </contour>
  </outline>
</glyph>
<glyph name="c" format="1">
  <advance width="1038"/>
  <unicode hex="0063"/>
  <outline>
    <contour>
      <point x="623" y="-21" type="curve" smooth="yes"/>
      <point x="317" y="-21"/>
      <point x="99" y="144"/>
      <point x="99" y="512" type="curve" smooth="yes"/>
      <point x="99" y="880"/>
      <point x="342" y="1058"/>
      <point x="617" y="1058" type="curve" smooth="yes"/>
      <point x="739" y="1058"/>
      <point x="833" y="1037"/>
      <point x="958" y="966" type="curve"/>
      <point x="913" y="829" type="line"/>
      <point x="878" y="853"/>
      <point x="776" y="918"/>
      <point x="629" y="918" type="curve" smooth="yes"/>
      <point x="418" y="918"/>
      <point x="276" y="763"/>
      <point x="276" y="511" type="curve" smooth="yes"/>
      <point x="276" y="272"/>
      <point x="402" y="119"/>
      <point x="629" y="119" type="curve" smooth="yes"/>
      <point x="774" y="119"/>
      <point x="867" y="180"/>
      <point x="907" y="204" type="curve"/>
      <point x="949" y="67" type="line"/>
      <point x="870" y="18"/>
      <point x="764" y="-21"/>
    </contour>
  </outline>
</glyph>
<glyph name="d" format="1">
  <advance width="1160"/>
  <unicode hex="0064"/>
  <outline>
    <contour>
      <point x="550" y="-21" type="curve"/>
      <point x="306" y="-21"/>
      <point x="96" y="156"/>
      <point x="96" y="511" type="curve" smooth="yes"/>
      <point x="96" y="869"/>
      <point x="296" y="1058"/>
      <point x="534" y="1058" type="curve" smooth="yes"/>
      <point x="641" y="1058"/>
      <point x="789" y="1022"/>
      <point x="851" y="911" type="curve"/>
      <point x="851" y="1481" type="line"/>
      <point x="1033" y="1481" type="line"/>
      <point x="1033" y="0" type="line"/>
      <point x="851" y="0" type="line"/>
      <point x="851" y="142" type="line"/>
      <point x="800" y="40"/>
      <point x="678" y="-15"/>
    </contour>
    <contour>
      <point x="576" y="119" type="curve" smooth="yes"/>
      <point x="707" y="119"/>
      <point x="830" y="195"/>
      <point x="851" y="247" type="curve"/>
      <point x="851" y="793" type="line"/>
      <point x="826" y="848"/>
      <point x="703" y="918"/>
      <point x="574" y="918" type="curve" smooth="yes"/>
      <point x="401" y="918"/>
      <point x="273" y="776"/>
      <point x="273" y="521" type="curve" smooth="yes"/>
      <point x="273" y="284"/>
      <point x="368" y="119"/>
    </contour>
  </outline>
</glyph>
<glyph name="e" format="1">
  <advance width="1130"/>
  <unicode hex="0065"/>
  <outline>
    <contour>
      <point x="631" y="-21" type="curve" smooth="yes"/>
      <point x="348" y="-21"/>
      <point x="99" y="152"/>
      <point x="99" y="510" type="curve" smooth="yes"/>
      <point x="99" y="856"/>
      <point x="314" y="1058"/>
      <point x="591" y="1058" type="curve" smooth="yes"/>
      <point x="902" y="1058"/>
      <point x="1036" y="801"/>
      <point x="1036" y="509" type="curve" smooth="yes"/>
      <point x="1036" y="475" type="line"/>
      <point x="275" y="475" type="line"/>
      <point x="287" y="245"/>
      <point x="438" y="119"/>
      <point x="647" y="119" type="curve" smooth="yes"/>
      <point x="766" y="119"/>
      <point x="888" y="166"/>
      <point x="953" y="228" type="curve"/>
      <point x="973" y="228" type="line"/>
      <point x="1017" y="102" type="line"/>
      <point x="986" y="70"/>
      <point x="867" y="-21"/>
    </contour>
    <contour>
      <point x="278" y="596" type="curve"/>
      <point x="862" y="596" type="line"/>
      <point x="857" y="720"/>
      <point x="804" y="918"/>
      <point x="593" y="918" type="curve" smooth="yes"/>
      <point x="416" y="918"/>
      <point x="297" y="781"/>
    </contour>
  </outline>
</glyph>
<glyph name="f" format="1">
  <advance width="706"/>
  <unicode hex="0066"/>
  <outline>
    <contour>
      <point x="205" y="0" type="line" smooth="no"/>
      <point x="205" y="907" type="line" smooth="no"/>
      <point x="25" y="907" type="line" smooth="no"/>
      <point x="25" y="1032" type="line" smooth="no"/>
      <point x="205" y="1032" type="line" smooth="no"/>
      <point x="205" y="1069" type="line" smooth="yes"/>
      <point x="205" y="1320"/>
      <point x="274" y="1433"/>
      <point x="540" y="1433" type="curve" smooth="yes"/>
      <point x="614" y="1433"/>
      <point x="618" y="1428"/>
      <point x="672" y="1422" type="curve" smooth="no"/>
      <point x="672" y="1281" type="line" smooth="no"/>
      <point x="672" y="1281"/>
      <point x="610" y="1292"/>
      <point x="570" y="1292" type="curve" smooth="yes"/>
      <point x="424" y="1292"/>
      <point x="387" y="1257"/>
      <point x="387" y="1032" type="curve" smooth="no"/>
      <point x="663" y="1032" type="line" smooth="no"/>
      <point x="663" y="907" type="line" smooth="no"/>
      <point x="388" y="907" type="line" smooth="no"/>
      <point x="388" y="0" type="line" smooth="no"/>
    </contour>
  </outline>
</glyph>
<glyph name="g" format="1">
  <advance width="1158"/>
  <unicode hex="0067"/>
  <outline>
    <contour>
      <point x="553" y="-386" type="curve" smooth="yes"/>
      <point x="366" y="-386"/>
      <point x="221" y="-309"/>
      <point x="214" y="-305" type="curve"/>
      <point x="250" y="-179" type="line"/>
      <point x="250" y="-179"/>
      <point x="375" y="-249"/>
      <point x="554" y="-249" type="curve" smooth="yes"/>
      <point x="769" y="-249"/>
      <point x="850" y="-147"/>
      <point x="850" y="56" type="curve" smooth="yes"/>
      <point x="850" y="112" type="line"/>
      <point x="774" y="20"/>
      <point x="672" y="-21"/>
      <point x="551" y="-21" type="curve" smooth="yes"/>
      <point x="299" y="-21"/>
      <point x="99" y="165"/>
      <point x="99" y="517" type="curve" smooth="yes"/>
      <point x="99" y="863"/>
      <point x="263" y="1058"/>
      <point x="536" y="1058" type="curve" smooth="yes"/>
      <point x="658" y="1058"/>
      <point x="787" y="992"/>
      <point x="849" y="892" type="curve"/>
      <point x="849" y="1032" type="line"/>
      <point x="1026" y="1032" type="line"/>
      <point x="1026" y="144" type="line" smooth="yes"/>
      <point x="1026" y="-253"/>
      <point x="881" y="-386"/>
    </contour>
    <contour>
      <point x="570" y="119" type="curve" smooth="yes"/>
      <point x="659" y="119"/>
      <point x="770" y="145"/>
      <point x="849" y="239" type="curve"/>
      <point x="849" y="793" type="line"/>
      <point x="778" y="880"/>
      <point x="642" y="918"/>
      <point x="559" y="918" type="curve" smooth="yes"/>
      <point x="334" y="918"/>
      <point x="276" y="733"/>
      <point x="276" y="518" type="curve" smooth="yes"/>
      <point x="276" y="267"/>
      <point x="389" y="119"/>
    </contour>
  </outline>
</glyph>
<glyph name="h" format="1">
  <advance width="1136"/>
  <unicode hex="0068"/>
  <outline>
    <contour>
      <point x="121" y="0" type="line" smooth="no"/>
      <point x="121" y="1481" type="line" smooth="no"/>
      <point x="303" y="1481" type="line" smooth="no"/>
      <point x="303" y="863" type="line" smooth="no"/>
      <point x="387" y="994"/>
      <point x="545" y="1058"/>
      <point x="688" y="1058" type="curve" smooth="yes"/>
      <point x="882" y="1058"/>
      <point x="1031" y="935"/>
      <point x="1031" y="691" type="curve" smooth="yes"/>
      <point x="1031" y="0" type="line" smooth="no"/>
      <point x="848" y="0" type="line" smooth="no"/>
      <point x="848" y="703" type="line" smooth="yes"/>
      <point x="848" y="869"/>
      <point x="730" y="918"/>
      <point x="627" y="918" type="curve" smooth="yes"/>
      <point x="447" y="918"/>
      <point x="303" y="789"/>
      <point x="303" y="746" type="curve" smooth="yes"/>
      <point x="303" y="0" type="line" smooth="no"/>
    </contour>
  </outline>
</glyph>
<glyph name="i" format="1">
  <advance width="518"/>
  <unicode hex="0069"/>
  <outline>
    <contour>
      <point x="166" y="0" type="line"/>
      <point x="166" y="1032" type="line"/>
      <point x="349" y="1032" type="line"/>
      <point x="349" y="0" type="line"/>
    </contour>
    <contour>
      <point x="264" y="1186" type="curve" smooth="yes"/>
      <point x="180" y="1186"/>
      <point x="139" y="1247"/>
      <point x="139" y="1307" type="curve" smooth="yes"/>
      <point x="139" y="1368"/>
      <point x="178" y="1428"/>
      <point x="264" y="1428" type="curve" smooth="yes"/>
      <point x="347" y="1428"/>
      <point x="387" y="1367"/>
      <point x="387" y="1307" type="curve" smooth="yes"/>
      <point x="387" y="1247"/>
      <point x="348" y="1186"/>
    </contour>
  </outline>
</glyph>
<glyph name="j" format="1">
  <advance width="522"/>
  <unicode hex="006a"/>
  <outline>
    <contour>
      <point x="103" y="-373" type="curve" smooth="yes"/>
      <point x="0" y="-373"/>
      <point x="-53" y="-367"/>
      <point x="-55" y="-366" type="curve" smooth="no"/>
      <point x="-55" y="-228" type="line" smooth="no"/>
      <point x="-53" y="-228"/>
      <point x="8" y="-231"/>
      <point x="39" y="-231" type="curve" smooth="yes"/>
      <point x="133" y="-231"/>
      <point x="189" y="-216"/>
      <point x="189" y="-9" type="curve" smooth="yes"/>
      <point x="189" y="1032" type="line" smooth="no"/>
      <point x="372" y="1032" type="line" smooth="no"/>
      <point x="372" y="10" type="line" smooth="yes"/>
      <point x="372" y="-209"/>
      <point x="333" y="-373"/>
    </contour>
    <contour>
      <point x="283" y="1186" type="curve" smooth="yes"/>
      <point x="199" y="1186"/>
      <point x="158" y="1249"/>
      <point x="158" y="1307" type="curve" smooth="yes"/>
      <point x="158" y="1369"/>
      <point x="197" y="1429"/>
      <point x="283" y="1429" type="curve" smooth="yes"/>
      <point x="366" y="1429"/>
      <point x="407" y="1368"/>
      <point x="407" y="1307" type="curve" smooth="yes"/>
      <point x="407" y="1248"/>
      <point x="366" y="1186"/>
    </contour>
  </outline>
</glyph>
<glyph name="k" format="1">
  <advance width="1062"/>
  <unicode hex="006b"/>
  <outline>
    <contour>
      <point x="115" y="0" type="line" smooth="no"/>
      <point x="115" y="1481" type="line" smooth="no"/>
      <point x="298" y="1481" type="line" smooth="no"/>
      <point x="298" y="583" type="line" smooth="no"/>
      <point x="827" y="1032" type="line" smooth="no"/>
      <point x="1024" y="1032" type="line" smooth="no"/>
      <point x="1024" y="988" type="line" smooth="no"/>
      <point x="583" y="607" type="line" smooth="no"/>
      <point x="1052" y="51" type="line" smooth="no"/>
      <point x="1052" y="0" type="line" smooth="no"/>
      <point x="878" y="0" type="line" smooth="no"/>
      <point x="449" y="528" type="line" smooth="no"/>
      <point x="298" y="410" type="line" smooth="no"/>
      <point x="298" y="0" type="line" smooth="no"/>
    </contour>
  </outline>
</glyph>
<glyph name="l" format="1">
  <advance width="614"/>
  <unicode hex="006C"/>
  <outline>
    <contour>
      <point x="158" y="141"/>
      <point x="162" y="-15"/>
      <point x="384" y="-15" type="curve" smooth="yes"/>
      <point x="409" y="-15"/>
      <point x="437" y="-13"/>
      <point x="512" y="-3" type="curve"/>
      <point x="493" y="132" type="line"/>
      <point x="359" y="132"/>
      <point x="340" y="162"/>
      <point x="340" y="310" type="curve" smooth="yes"/>
      <point x="340" y="1481" type="line"/>
      <point x="158" y="1481" type="line"/>
      <point x="158" y="299" type="line"/>
    </contour>
  </outline>
</glyph>
<glyph name="m" format="1">
  <advance width="1699"/>
  <unicode hex="006D"/>
  <outline>
    <contour>
      <point x="127" y="0" type="line"/>
      <point x="127" y="1032" type="line"/>
      <point x="309" y="1032" type="line"/>
      <point x="309" y="869" type="line"/>
      <point x="375" y="988"/>
      <point x="514" y="1058"/>
      <point x="654" y="1058" type="curve" smooth="yes"/>
      <point x="769" y="1058"/>
      <point x="874" y="1013"/>
      <point x="924" y="882" type="curve"/>
      <point x="1013" y="1002"/>
      <point x="1154" y="1058"/>
      <point x="1275" y="1058" type="curve" smooth="yes"/>
      <point x="1452" y="1058"/>
      <point x="1586" y="941"/>
      <point x="1586" y="680" type="curve" smooth="yes"/>
      <point x="1586" y="0" type="line"/>
      <point x="1403" y="0" type="line"/>
      <point x="1403" y="658" type="line" smooth="yes"/>
      <point x="1403" y="843"/>
      <point x="1331" y="918"/>
      <point x="1208" y="918" type="curve" smooth="yes"/>
      <point x="1071" y="918"/>
      <point x="947" y="798"/>
      <point x="947" y="760" type="curve" smooth="yes"/>
      <point x="947" y="0" type="line"/>
      <point x="765" y="0" type="line"/>
      <point x="765" y="683" type="line" smooth="yes"/>
      <point x="765" y="845"/>
      <point x="680" y="918"/>
      <point x="574" y="918" type="curve" smooth="yes"/>
      <point x="449" y="918"/>
      <point x="331" y="814"/>
      <point x="309" y="748" type="curve"/>
      <point x="309" y="0" type="line"/>
    </contour>
  </outline>
</glyph>
<glyph name="n" format="1">
  <advance width="1138"/>
  <unicode hex="006E"/>
  <outline>
    <contour>
      <point x="127" y="0" type="line"/>
      <point x="127" y="1032" type="line"/>
      <point x="309" y="1032" type="line"/>
      <point x="309" y="863" type="line"/>
      <point x="393" y="994"/>
      <point x="551" y="1058"/>
      <point x="694" y="1058" type="curve" smooth="yes"/>
      <point x="888" y="1058"/>
      <point x="1037" y="935"/>
      <point x="1037" y="691" type="curve" smooth="yes"/>
      <point x="1037" y="0" type="line"/>
      <point x="854" y="0" type="line"/>
      <point x="854" y="703" type="line" smooth="yes"/>
      <point x="854" y="869"/>
      <point x="736" y="918"/>
      <point x="633" y="918" type="curve" smooth="yes"/>
      <point x="453" y="918"/>
      <point x="309" y="789"/>
      <point x="309" y="746" type="curve" smooth="yes"/>
      <point x="309" y="0" type="line"/>
    </contour>
  </outline>
</glyph>
<glyph name="o" format="1">
  <advance width="1189"/>
  <unicode hex="006f"/>
  <outline>
    <contour>
      <point x="594" y="119" type="curve" smooth="yes"/>
      <point x="807" y="119"/>
      <point x="917" y="284"/>
      <point x="917" y="522" type="curve" smooth="yes"/>
      <point x="917" y="781"/>
      <point x="791" y="918"/>
      <point x="592" y="918" type="curve" smooth="yes"/>
      <point x="412" y="918"/>
      <point x="270" y="781"/>
      <point x="270" y="522" type="curve" smooth="yes"/>
      <point x="270" y="271"/>
      <point x="403" y="119"/>
    </contour>
    <contour>
      <point x="592" y="-21" type="curve" smooth="yes"/>
      <point x="338" y="-21"/>
      <point x="93" y="132"/>
      <point x="93" y="522" type="curve" smooth="yes"/>
      <point x="93" y="912"/>
      <point x="349" y="1058"/>
      <point x="592" y="1058" type="curve" smooth="yes"/>
      <point x="850" y="1058"/>
      <point x="1096" y="912"/>
      <point x="1096" y="522" type="curve" smooth="yes"/>
      <point x="1096" y="135"/>
      <point x="850" y="-21"/>
    </contour>
  </outline>
</glyph>
<glyph name="p" format="1">
  <advance width="1161"/>
  <unicode hex="0070"/>
  <outline>
    <contour>
      <point x="127" y="-388" type="line"/>
      <point x="127" y="1032" type="line"/>
      <point x="309" y="1032" type="line"/>
      <point x="309" y="890" type="line"/>
      <point x="372" y="990"/>
      <point x="509" y="1058"/>
      <point x="632" y="1058" type="curve" smooth="yes"/>
      <point x="906" y="1058"/>
      <point x="1065" y="860"/>
      <point x="1065" y="515" type="curve" smooth="yes"/>
      <point x="1065" y="160"/>
      <point x="878" y="-21"/>
      <point x="625" y="-21" type="curve" smooth="yes"/>
      <point x="503" y="-21"/>
      <point x="383" y="14"/>
      <point x="309" y="109" type="curve"/>
      <point x="309" y="-388" type="line"/>
    </contour>
    <contour>
      <point x="595" y="119" type="curve" smooth="yes"/>
      <point x="779" y="119"/>
      <point x="882" y="268"/>
      <point x="882" y="516" type="curve" smooth="yes"/>
      <point x="882" y="727"/>
      <point x="809" y="918"/>
      <point x="597" y="918" type="curve" smooth="yes"/>
      <point x="518" y="918"/>
      <point x="381" y="881"/>
      <point x="309" y="792" type="curve"/>
      <point x="309" y="236" type="line"/>
      <point x="390" y="137"/>
      <point x="543" y="119"/>
    </contour>
  </outline>
</glyph>
<glyph name="q" format="1">
  <advance width="1164"/>
  <unicode hex="0071"/>
  <outline>
    <contour>
      <point x="854" y="-388" type="line"/>
      <point x="854" y="112" type="line"/>
      <point x="783" y="21"/>
      <point x="677" y="-21"/>
      <point x="555" y="-21" type="curve" smooth="yes"/>
      <point x="299" y="-21"/>
      <point x="99" y="170"/>
      <point x="99" y="529" type="curve" smooth="yes"/>
      <point x="99" y="866"/>
      <point x="277" y="1058"/>
      <point x="547" y="1058" type="curve" smooth="yes"/>
      <point x="669" y="1058"/>
      <point x="791" y="1013"/>
      <point x="854" y="913" type="curve"/>
      <point x="854" y="1032" type="line"/>
      <point x="1037" y="1032" type="line"/>
      <point x="1037" y="-388" type="line"/>
    </contour>
    <contour>
      <point x="577" y="119" type="curve" smooth="yes"/>
      <point x="639" y="119"/>
      <point x="781" y="145"/>
      <point x="854" y="236" type="curve"/>
      <point x="854" y="792" type="line"/>
      <point x="782" y="887"/>
      <point x="640" y="918"/>
      <point x="559" y="918" type="curve" smooth="yes"/>
      <point x="332" y="918"/>
      <point x="280" y="731"/>
      <point x="280" y="515" type="curve" smooth="yes"/>
      <point x="280" y="259"/>
      <point x="392" y="119"/>
    </contour>
  </outline>
</glyph>
<glyph name="r" format="1">
  <advance width="772"/>
  <unicode hex="0072"/>
  <outline>
    <contour>
      <point x="133" y="0" type="line"/>
      <point x="133" y="1032" type="line"/>
      <point x="315" y="1032" type="line"/>
      <point x="315" y="794" type="line"/>
      <point x="316" y="794" type="line"/>
      <point x="385" y="949"/>
      <point x="485" y="1036"/>
      <point x="612" y="1036" type="curve" smooth="yes"/>
      <point x="648" y="1036"/>
      <point x="685" y="1029"/>
      <point x="710" y="1016" type="curve"/>
      <point x="705" y="976"/>
      <point x="694" y="848"/>
      <point x="694" y="848" type="curve"/>
      <point x="649" y="859"/>
      <point x="610" y="864"/>
      <point x="576" y="864" type="curve" smooth="yes"/>
      <point x="448" y="864"/>
      <point x="380" y="793"/>
      <point x="315" y="674" type="curve"/>
      <point x="315" y="0" type="line"/>
    </contour>
  </outline>
</glyph>
<glyph name="s" format="1">
  <advance width="990"/>
  <unicode hex="0073"/>
  <outline>
    <contour>
      <point x="498" y="-21" type="curve" smooth="yes"/>
      <point x="366" y="-21"/>
      <point x="218" y="9"/>
      <point x="117" y="71" type="curve"/>
      <point x="186" y="200" type="line"/>
      <point x="203" y="200" type="line"/>
      <point x="276" y="166"/>
      <point x="353" y="119"/>
      <point x="500" y="119" type="curve" smooth="yes"/>
      <point x="633" y="119"/>
      <point x="748" y="171"/>
      <point x="748" y="289" type="curve" smooth="yes"/>
      <point x="748" y="372"/>
      <point x="716" y="424"/>
      <point x="500" y="471" type="curve"/>
      <point x="293" y="522"/>
      <point x="113" y="566"/>
      <point x="113" y="768" type="curve" smooth="yes"/>
      <point x="113" y="950"/>
      <point x="256" y="1058"/>
      <point x="505" y="1058" type="curve" smooth="yes"/>
      <point x="670" y="1058"/>
      <point x="781" y="1016"/>
      <point x="844" y="984" type="curve"/>
      <point x="793" y="857" type="line"/>
      <point x="776" y="857" type="line"/>
      <point x="719" y="879"/>
      <point x="623" y="918"/>
      <point x="508" y="918" type="curve" smooth="yes"/>
      <point x="407" y="918"/>
      <point x="284" y="888"/>
      <point x="284" y="781" type="curve" smooth="yes"/>
      <point x="284" y="694"/>
      <point x="327" y="665"/>
      <point x="566" y="608" type="curve"/>
      <point x="809" y="549"/>
      <point x="905" y="477"/>
      <point x="905" y="289" type="curve" smooth="yes"/>
      <point x="905" y="94"/>
      <point x="767" y="-21"/>
    </contour>
  </outline>
</glyph>
<glyph name="t" format="1">
  <advance width="809"/>
  <unicode hex="0074"/>
  <outline>
    <contour>
      <point x="551" y="-13" type="curve" smooth="yes"/>
      <point x="303" y="-13"/>
      <point x="215" y="91"/>
      <point x="215" y="328" type="curve" smooth="yes"/>
      <point x="215" y="907" type="line"/>
      <point x="75" y="907" type="line"/>
      <point x="75" y="1032" type="line"/>
      <point x="215" y="1032" type="line"/>
      <point x="215" y="1312" type="line"/>
      <point x="398" y="1362" type="line"/>
      <point x="398" y="1032" type="line"/>
      <point x="735" y="1032" type="line"/>
      <point x="735" y="907" type="line"/>
      <point x="398" y="907" type="line"/>
      <point x="398" y="326" type="line" smooth="yes"/>
      <point x="398" y="176"/>
      <point x="463" y="121"/>
      <point x="579" y="121" type="curve" smooth="yes"/>
      <point x="646" y="121"/>
      <point x="735" y="134"/>
      <point x="735" y="135" type="curve" smooth="yes"/>
      <point x="735" y="5" type="line"/>
      <point x="668" y="-8"/>
      <point x="628" y="-13"/>
    </contour>
  </outline>
</glyph>
<glyph name="u" format="1">
  <advance width="1131"/>
  <unicode hex="0075"/>
  <outline>
    <contour>
      <point x="468" y="-21" type="curve" smooth="yes"/>
      <point x="274" y="-21"/>
      <point x="113" y="97"/>
      <point x="113" y="341" type="curve" smooth="yes"/>
      <point x="113" y="1032" type="line"/>
      <point x="296" y="1032" type="line"/>
      <point x="296" y="340" type="line" smooth="yes"/>
      <point x="296" y="177"/>
      <point x="408" y="119"/>
      <point x="512" y="119" type="curve" smooth="yes"/>
      <point x="712" y="119"/>
      <point x="801" y="232"/>
      <point x="821" y="290" type="curve"/>
      <point x="821" y="1032" type="line"/>
      <point x="1004" y="1032" type="line"/>
      <point x="1004" y="0" type="line"/>
      <point x="821" y="0" type="line"/>
      <point x="821" y="162" type="line"/>
      <point x="737" y="33"/>
      <point x="611" y="-21"/>
    </contour>
  </outline>
</glyph>
<glyph name="v" format="1">
  <advance width="1020"/>
  <unicode hex="0076"/>
  <outline>
    <contour>
      <point x="402" y="0" type="line"/>
      <point x="36" y="1032" type="line"/>
      <point x="218" y="1032" type="line"/>
      <point x="462" y="291" type="line"/>
      <point x="516" y="129" type="line"/>
      <point x="518" y="129" type="line"/>
      <point x="569" y="291" type="line"/>
      <point x="794" y="1032" type="line"/>
      <point x="984" y="1032" type="line"/>
      <point x="623" y="0" type="line"/>
    </contour>
  </outline>
</glyph>
<glyph name="w" format="1">
  <advance width="1557"/>
  <unicode hex="0077"/>
  <outline>
    <contour>
      <point x="341" y="0" type="line"/>
      <point x="58" y="1032" type="line"/>
      <point x="231" y="1032" type="line"/>
      <point x="409" y="316" type="line"/>
      <point x="452" y="115" type="line"/>
      <point x="453" y="115" type="line"/>
      <point x="496" y="316" type="line"/>
      <point x="674" y="1032" type="line"/>
      <point x="894" y="1032" type="line"/>
      <point x="1069" y="323" type="line"/>
      <point x="1112" y="124" type="line"/>
      <point x="1154" y="322" type="line"/>
      <point x="1321" y="1032" type="line"/>
      <point x="1499" y="1032" type="line"/>
      <point x="1214" y="0" type="line"/>
      <point x="1005" y="0" type="line"/>
      <point x="788" y="887" type="line"/>
      <point x="785" y="887" type="line"/>
      <point x="555" y="0" type="line"/>
    </contour>
  </outline>
</glyph>
<glyph name="x" format="1">
  <advance width="1051"/>
  <unicode hex="0078"/>
  <outline>
    <contour>
      <point x="69" y="0" type="line"/>
      <point x="423" y="513" type="line"/>
      <point x="65" y="1032" type="line"/>
      <point x="256" y="1032" type="line"/>
      <point x="461" y="727" type="line"/>
      <point x="528" y="633" type="line"/>
      <point x="594" y="727" type="line"/>
      <point x="804" y="1032" type="line"/>
      <point x="999" y="1032" type="line"/>
      <point x="642" y="513" type="line"/>
      <point x="995" y="0" type="line"/>
      <point x="802" y="0" type="line"/>
      <point x="577" y="331" type="line"/>
      <point x="531" y="400" type="line"/>
      <point x="485" y="331" type="line"/>
      <point x="257" y="0" type="line"/>
    </contour>
  </outline>
</glyph>
<glyph name="y" format="1">
  <advance width="1072"/>
  <unicode hex="0079"/>
  <outline>
    <contour>
      <point x="284" y="-391" type="line"/>
      <point x="338" y="-295"/>
      <point x="389" y="-178"/>
      <point x="438" y="-50" type="curve"/>
      <point x="11" y="1032" type="line"/>
      <point x="194" y="1032" type="line"/>
      <point x="530" y="125" type="line"/>
      <point x="857" y="1032" type="line"/>
      <point x="1053" y="1032" type="line"/>
      <point x="601" y="-102" type="line" smooth="yes"/>
      <point x="550" y="-231"/>
      <point x="471" y="-391"/>
      <point x="470" y="-391" type="curve" smooth="yes"/>
    </contour>
  </outline>
</glyph>
<glyph name="z" format="1">
  <advance width="961"/>
  <unicode hex="007a"/>
  <outline>
    <contour>
      <point x="91" y="0" type="line" smooth="no"/>
      <point x="91" y="144" type="line" smooth="no"/>
      <point x="685" y="907" type="line" smooth="no"/>
      <point x="117" y="907" type="line" smooth="no"/>
      <point x="117" y="1032" type="line" smooth="no"/>
      <point x="884" y="1032" type="line" smooth="no"/>
      <point x="884" y="899" type="line" smooth="no"/>
      <point x="281" y="125" type="line" smooth="no"/>
      <point x="890" y="125" type="line" smooth="no"/>
      <point x="890" y="0" type="line" smooth="no"/>
    </contour>
  </outline>
</glyph>
<glyph name="braceleft" format="1">
  <advance width="882"/>
  <unicode hex="007b"/>
  <outline>
    <contour>
      <point x="749" y="-224" type="line" smooth="yes"/>
      <point x="488" y="-224"/>
      <point x="355" y="-189"/>
      <point x="355" y="79" type="curve" smooth="yes"/>
      <point x="355" y="242" type="line" smooth="yes"/>
      <point x="355" y="451"/>
      <point x="271" y="546"/>
      <point x="46" y="546" type="curve" smooth="no"/>
      <point x="46" y="711" type="line" smooth="no"/>
      <point x="271" y="711"/>
      <point x="355" y="805"/>
      <point x="355" y="1014" type="curve" smooth="yes"/>
      <point x="355" y="1179" type="line" smooth="yes"/>
      <point x="355" y="1444"/>
      <point x="487" y="1481"/>
      <point x="744" y="1481" type="curve" smooth="yes"/>
      <point x="832" y="1481" type="line" smooth="no"/>
      <point x="832" y="1344" type="line" smooth="no"/>
      <point x="677" y="1344" type="line" smooth="yes"/>
      <point x="549" y="1344"/>
      <point x="536" y="1296"/>
      <point x="536" y="1185" type="curve" smooth="yes"/>
      <point x="536" y="1021" type="line" smooth="yes"/>
      <point x="536" y="797"/>
      <point x="456" y="681"/>
      <point x="297" y="632" type="curve" smooth="no"/>
      <point x="297" y="625" type="line" smooth="no"/>
      <point x="454" y="576"/>
      <point x="536" y="462"/>
      <point x="536" y="240" type="curve" smooth="yes"/>
      <point x="536" y="65" type="line" smooth="yes"/>
      <point x="536" y="-48"/>
      <point x="548" y="-87"/>
      <point x="676" y="-87" type="curve" smooth="yes"/>
      <point x="832" y="-87" type="line" smooth="no"/>
      <point x="832" y="-224" type="line" smooth="no"/>
    </contour>
  </outline>
</glyph>
<glyph name="bar" format="1">
  <advance width="379"/>
  <unicode hex="007c"/>
  <outline>
    <contour>
      <point x="98" y="-338" type="line" smooth="no"/>
      <point x="98" y="1481" type="line" smooth="no"/>
      <point x="281" y="1481" type="line" smooth="no"/>
      <point x="281" y="-338" type="line" smooth="no"/>
    </contour>
  </outline>
</glyph>
<glyph name="asciitilde" format="1">
  <advance width="1347"/>
  <unicode hex="007e"/>
  <outline>
    <contour>
      <point x="959" y="309" type="curve" smooth="yes"/>
      <point x="692" y="309"/>
      <point x="475" y="613"/>
      <point x="379" y="613" type="curve" smooth="yes"/>
      <point x="293" y="613"/>
      <point x="245" y="506"/>
      <point x="244" y="315" type="curve" smooth="no"/>
      <point x="63" y="357" type="line" smooth="no"/>
      <point x="79" y="689"/>
      <point x="201" y="814"/>
      <point x="371" y="814" type="curve" smooth="yes"/>
      <point x="571" y="814"/>
      <point x="779" y="505"/>
      <point x="963" y="505" type="curve" smooth="yes"/>
      <point x="1075" y="505"/>
      <point x="1101" y="641"/>
      <point x="1103" y="807" type="curve" smooth="no"/>
      <point x="1286" y="772" type="line" smooth="no"/>
      <point x="1270" y="474"/>
      <point x="1186" y="309"/>
    </contour>
  </outline>
</glyph>
<glyph name="exclamdown" format="1">
  <advance width="496"/>
  <unicode hex="00a1"/>
  <outline>
    <contour>
      <point x="373" y="1051" type="curve" smooth="yes"/>
      <point x="456" y="1051"/>
      <point x="523" y="986"/>
      <point x="523" y="902" type="curve" smooth="yes"/>
      <point x="523" y="819"/>
      <point x="456" y="753"/>
      <point x="373" y="753" type="curve" smooth="yes"/>
      <point x="290" y="753"/>
      <point x="222" y="819"/>
      <point x="222" y="902" type="curve" smooth="yes"/>
      <point x="222" y="986"/>
      <point x="290" y="1051"/>
    </contour>
    <contour>
      <point x="404" y="564" type="line" smooth="no"/>
      <point x="493" y="-432" type="line" smooth="no"/>
      <point x="250" y="-432" type="line" smooth="no"/>
      <point x="338" y="564" type="line" smooth="no"/>
    </contour>
  </outline>
</glyph>
<glyph name="sterling" format="1">
  <advance width="1215"/>
  <unicode hex="00a3"/>
  <outline>
    <contour>
      <point x="814" y="-23" type="curve" smooth="yes"/>
      <point x="674" y="-23"/>
      <point x="495" y="16"/>
      <point x="353" y="16" type="curve" smooth="yes"/>
      <point x="265" y="16"/>
      <point x="176" y="-4"/>
      <point x="80" y="-16" type="curve" smooth="no"/>
      <point x="80" y="109" type="line" smooth="no"/>
      <point x="145" y="120"/>
      <point x="218" y="127"/>
      <point x="256" y="144" type="curve" smooth="no"/>
      <point x="341" y="344"/>
      <point x="364" y="486"/>
      <point x="364" y="579" type="curve" smooth="yes"/>
      <point x="364" y="648"/>
      <point x="351" y="685"/>
      <point x="351" y="686" type="curve" smooth="no"/>
      <point x="89" y="686" type="line" smooth="no"/>
      <point x="89" y="810" type="line" smooth="no"/>
      <point x="325" y="810" type="line" smooth="no"/>
      <point x="298" y="946"/>
      <point x="228" y="1070"/>
      <point x="228" y="1173" type="curve" smooth="yes"/>
      <point x="228" y="1376"/>
      <point x="431" y="1504"/>
      <point x="707" y="1504" type="curve" smooth="yes"/>
      <point x="857" y="1504"/>
      <point x="1009" y="1457"/>
      <point x="1066" y="1400" type="curve" smooth="no"/>
      <point x="1066" y="1248" type="line" smooth="no"/>
      <point x="1007" y="1248" type="line" smooth="no"/>
      <point x="934" y="1355"/>
      <point x="819" y="1367"/>
      <point x="728" y="1367" type="curve" smooth="yes"/>
      <point x="514" y="1367"/>
      <point x="433" y="1278"/>
      <point x="433" y="1131" type="curve" smooth="yes"/>
      <point x="433" y="1056"/>
      <point x="505" y="875"/>
      <point x="519" y="810" type="curve" smooth="no"/>
      <point x="964" y="810" type="line" smooth="no"/>
      <point x="964" y="686" type="line" smooth="no"/>
      <point x="540" y="686" type="line" smooth="no"/>
      <point x="541" y="676"/>
      <point x="546" y="581"/>
      <point x="546" y="570" type="curve" smooth="yes"/>
      <point x="546" y="470"/>
      <point x="473" y="252"/>
      <point x="410" y="149" type="curve" smooth="no"/>
      <point x="499" y="147"/>
      <point x="674" y="118"/>
      <point x="763" y="118" type="curve" smooth="yes"/>
      <point x="856" y="118"/>
      <point x="1015" y="141"/>
      <point x="1109" y="175" type="curve" smooth="no"/>
      <point x="1144" y="36" type="line" smooth="no"/>
      <point x="1076" y="10"/>
      <point x="919" y="-23"/>
    </contour>
  </outline>
</glyph>
<glyph name="yen" format="1">
  <advance width="1466"/>
  <unicode hex="00a5"/>
  <outline>
    <contour>
      <point x="625" y="0" type="line" smooth="no"/>
      <point x="625" y="362" type="line" smooth="no"/>
      <point x="225" y="362" type="line" smooth="no"/>
      <point x="225" y="458" type="line" smooth="no"/>
      <point x="625" y="458" type="line" smooth="no"/>
      <point x="625" y="623" type="line" smooth="no"/>
      <point x="225" y="623" type="line" smooth="no"/>
      <point x="225" y="719" type="line" smooth="no"/>
      <point x="608" y="719" type="line" smooth="no"/>
      <point x="64" y="1481" type="line" smooth="no"/>
      <point x="259" y="1481" type="line" smooth="no"/>
      <point x="718" y="825" type="line" smooth="no"/>
      <point x="1201" y="1481" type="line" smooth="no"/>
      <point x="1402" y="1481" type="line" smooth="no"/>
      <point x="820" y="719" type="line" smooth="no"/>
      <point x="1216" y="719" type="line" smooth="no"/>
      <point x="1216" y="623" type="line" smooth="no"/>
      <point x="808" y="623" type="line" smooth="no"/>
      <point x="808" y="458" type="line" smooth="no"/>
      <point x="1216" y="458" type="line" smooth="no"/>
      <point x="1216" y="362" type="line" smooth="no"/>
      <point x="808" y="362" type="line" smooth="no"/>
      <point x="808" y="0" type="line" smooth="no"/>
    </contour>
  </outline>
</glyph>
<glyph name="brokenbar" format="1">
  <advance width="331"/>
  <unicode hex="00a6"/>
  <outline>
    <contour>
      <point x="98" y="-337" type="line" smooth="no"/>
      <point x="98" y="337" type="line" smooth="no"/>
      <point x="233" y="337" type="line" smooth="no"/>
      <point x="233" y="-337" type="line" smooth="no"/>
    </contour>
    <contour>
      <point x="98" y="625" type="line" smooth="no"/>
      <point x="98" y="1296" type="line" smooth="no"/>
      <point x="233" y="1296" type="line" smooth="no"/>
      <point x="233" y="625" type="line" smooth="no"/>
    </contour>
  </outline>
</glyph>
<glyph name="section" format="1">
  <advance width="984"/>
  <unicode hex="00a7"/>
  <outline>
    <contour>
      <point x="482" y="-74" type="curve" smooth="no"/>
      <point x="347" y="-74"/>
      <point x="191" y="-44"/>
      <point x="88" y="17" type="curve" smooth="no"/>
      <point x="114" y="159" type="line" smooth="no"/>
      <point x="188" y="121"/>
      <point x="309" y="71"/>
      <point x="479" y="71" type="curve" smooth="yes"/>
      <point x="644" y="71"/>
      <point x="732" y="116"/>
      <point x="732" y="236" type="curve" smooth="yes"/>
      <point x="732" y="318"/>
      <point x="706" y="375"/>
      <point x="485" y="421" type="curve" smooth="yes"/>
      <point x="278" y="464"/>
      <point x="83" y="511"/>
      <point x="83" y="713" type="curve" smooth="yes"/>
      <point x="83" y="842"/>
      <point x="138" y="934"/>
      <point x="260" y="976" type="curve" smooth="no"/>
      <point x="156" y="1020"/>
      <point x="83" y="1089"/>
      <point x="83" y="1212" type="curve" smooth="yes"/>
      <point x="83" y="1394"/>
      <point x="197" y="1503"/>
      <point x="451" y="1503" type="curve" smooth="yes"/>
      <point x="620" y="1503"/>
      <point x="738" y="1470"/>
      <point x="828" y="1427" type="curve" smooth="no"/>
      <point x="815" y="1287" type="line" smooth="no"/>
      <point x="781" y="1301"/>
      <point x="607" y="1362"/>
      <point x="465" y="1362" type="curve" smooth="yes"/>
      <point x="364" y="1362"/>
      <point x="261" y="1341"/>
      <point x="261" y="1220" type="curve" smooth="yes"/>
      <point x="261" y="1124"/>
      <point x="319" y="1101"/>
      <point x="557" y="1042" type="curve" smooth="no"/>
      <point x="809" y="981"/>
      <point x="903" y="922"/>
      <point x="903" y="726" type="curve" smooth="yes"/>
      <point x="903" y="616"/>
      <point x="864" y="534"/>
      <point x="774" y="484" type="curve" smooth="no"/>
      <point x="864" y="434"/>
      <point x="903" y="357"/>
      <point x="903" y="233" type="curve" smooth="yes"/>
      <point x="903" y="39"/>
      <point x="780" y="-71"/>
    </contour>
    <contour>
      <point x="599" y="546" type="curve" smooth="no"/>
      <point x="601" y="546" type="line" smooth="no"/>
      <point x="682" y="581"/>
      <point x="732" y="642"/>
      <point x="732" y="735" type="curve" smooth="yes"/>
      <point x="732" y="820"/>
      <point x="706" y="867"/>
      <point x="485" y="913" type="curve" smooth="yes"/>
      <point x="473" y="916"/>
      <point x="462" y="918"/>
      <point x="448" y="921" type="curve" smooth="no"/>
      <point x="314" y="903"/>
      <point x="246" y="832"/>
      <point x="246" y="738" type="curve" smooth="yes"/>
      <point x="246" y="636"/>
      <point x="310" y="606"/>
      <point x="561" y="555" type="curve" smooth="yes"/>
      <point x="573" y="552"/>
      <point x="588" y="549"/>
    </contour>
  </outline>
</glyph>
<glyph name="dieresis" format="1">
  <advance width="690"/>
  <unicode hex="00a8"/>
  <outline>
    <contour>
      <point x="97" y="1217" type="line" smooth="no"/>
      <point x="97" y="1424" type="line" smooth="no"/>
      <point x="278" y="1424" type="line" smooth="no"/>
      <point x="278" y="1217" type="line" smooth="no"/>
    </contour>
    <contour>
      <point x="413" y="1217" type="line" smooth="no"/>
      <point x="413" y="1424" type="line" smooth="no"/>
      <point x="593" y="1424" type="line" smooth="no"/>
      <point x="593" y="1217" type="line" smooth="no"/>
    </contour>
  </outline>
</glyph>
<glyph name="ordfeminine" format="1">
  <advance width="791"/>
  <unicode hex="00aa"/>
  <outline>
    <contour>
      <point x="309" y="655" type="curve" smooth="yes"/>
      <point x="209" y="655"/>
      <point x="85" y="714"/>
      <point x="85" y="878" type="curve" smooth="yes"/>
      <point x="85" y="1069"/>
      <point x="260" y="1126"/>
      <point x="554" y="1126" type="curve" smooth="no"/>
      <point x="554" y="1260"/>
      <point x="522" y="1308"/>
      <point x="397" y="1308" type="curve" smooth="yes"/>
      <point x="295" y="1308"/>
      <point x="221" y="1290"/>
      <point x="145" y="1256" type="curve" smooth="no"/>
      <point x="111" y="1368" type="line" smooth="no"/>
      <point x="184" y="1404"/>
      <point x="275" y="1429"/>
      <point x="395" y="1429" type="curve" smooth="yes"/>
      <point x="632" y="1429"/>
      <point x="698" y="1327"/>
      <point x="698" y="1140" type="curve" smooth="yes"/>
      <point x="698" y="669" type="line" smooth="no"/>
      <point x="554" y="669" type="line" smooth="no"/>
      <point x="554" y="748" type="line" smooth="no"/>
      <point x="552" y="748" type="line" smooth="no"/>
      <point x="495" y="691"/>
      <point x="402" y="655"/>
    </contour>
    <contour>
      <point x="337" y="777" type="curve" smooth="yes"/>
      <point x="435" y="777"/>
      <point x="533" y="845"/>
      <point x="554" y="882" type="curve" smooth="no"/>
      <point x="554" y="1025" type="line" smooth="no"/>
      <point x="325" y="1025"/>
      <point x="225" y="976"/>
      <point x="225" y="891" type="curve" smooth="yes"/>
      <point x="225" y="837"/>
      <point x="244" y="777"/>
    </contour>
  </outline>
</glyph>
<glyph name="guillemotleft" format="1">
  <advance width="885"/>
  <unicode hex="00ab"/>
  <outline>
    <contour>
      <point x="468" y="160" type="line" smooth="no"/>
      <point x="468" y="160"/>
      <point x="95" y="463"/>
      <point x="1" y="533" type="curve" smooth="no"/>
      <point x="1" y="635" type="line" smooth="no"/>
      <point x="96" y="714"/>
      <point x="468" y="1021"/>
      <point x="468" y="1021" type="curve" smooth="no"/>
      <point x="468" y="815" type="line" smooth="no"/>
      <point x="162" y="582" type="line" smooth="no"/>
      <point x="162" y="582"/>
      <point x="462" y="359"/>
      <point x="468" y="354" type="curve" smooth="no"/>
    </contour>
    <contour>
      <point x="879" y="160" type="line" smooth="no"/>
      <point x="879" y="160"/>
      <point x="505" y="463"/>
      <point x="411" y="533" type="curve" smooth="no"/>
      <point x="411" y="635" type="line" smooth="no"/>
      <point x="506" y="714"/>
      <point x="879" y="1021"/>
      <point x="879" y="1021" type="curve" smooth="no"/>
      <point x="879" y="815" type="line" smooth="no"/>
      <point x="572" y="582" type="line" smooth="no"/>
      <point x="572" y="582"/>
      <point x="874" y="359"/>
      <point x="879" y="354" type="curve" smooth="no"/>
    </contour>
  </outline>
</glyph>
<glyph name="logicalnot" format="1">
  <advance width="1182"/>
  <unicode hex="00ac"/>
  <outline>
    <contour>
      <point x="956" y="260" type="line" smooth="no"/>
      <point x="956" y="650" type="line" smooth="no"/>
      <point x="94" y="650" type="line" smooth="no"/>
      <point x="94" y="776" type="line" smooth="no"/>
      <point x="1084" y="776" type="line" smooth="no"/>
      <point x="1084" y="260" type="line" smooth="no"/>
    </contour>
  </outline>
</glyph>
<glyph name="uni00AD" format="1">
  <advance width="775"/>
  <unicode hex="00ad"/>
  <outline>
    <contour>
      <point x="98" y="513" type="line" smooth="no"/>
      <point x="98" y="630" type="line" smooth="no"/>
      <point x="676" y="630" type="line" smooth="no"/>
      <point x="676" y="513" type="line" smooth="no"/>
    </contour>
  </outline>
</glyph>
<glyph name="registered" format="1">
  <advance width="1729"/>
  <unicode hex="00ae"/>
  <outline>
    <contour>
      <point x="555" y="234" type="line" smooth="no"/>
      <point x="555" y="1058" type="line" smooth="no"/>
      <point x="843" y="1058" type="line" smooth="yes"/>
      <point x="1015" y="1058"/>
      <point x="1192" y="1022"/>
      <point x="1192" y="826" type="curve" smooth="yes"/>
      <point x="1192" y="693"/>
      <point x="1106" y="617"/>
      <point x="995" y="607" type="curve" smooth="no"/>
      <point x="1223" y="277" type="line" smooth="no"/>
      <point x="1223" y="234" type="line" smooth="no"/>
      <point x="1121" y="234" type="line" smooth="no"/>
      <point x="878" y="592" type="line" smooth="no"/>
      <point x="675" y="592" type="line" smooth="no"/>
      <point x="675" y="234" type="line" smooth="no"/>
    </contour>
    <contour>
      <point x="675" y="683" type="line" smooth="no"/>
      <point x="900" y="683" type="line" smooth="yes"/>
      <point x="1012" y="683"/>
      <point x="1076" y="735"/>
      <point x="1076" y="813" type="curve" smooth="yes"/>
      <point x="1076" y="904"/>
      <point x="1070" y="965"/>
      <point x="845" y="965" type="curve" smooth="yes"/>
      <point x="675" y="965" type="line" smooth="no"/>
    </contour>
    <contour>
      <point x="864" y="-21" type="curve" smooth="yes"/>
      <point x="1204" y="-21"/>
      <point x="1523" y="250"/>
      <point x="1523" y="623" type="curve" smooth="yes"/>
      <point x="1523" y="1000"/>
      <point x="1202" y="1268"/>
      <point x="864" y="1268" type="curve" smooth="yes"/>
      <point x="512" y="1268"/>
      <point x="201" y="988"/>
      <point x="201" y="623" type="curve" smooth="yes"/>
      <point x="201" y="244"/>
      <point x="527" y="-21"/>
    </contour>
    <contour>
      <point x="864" y="-125" type="curve" smooth="yes"/>
      <point x="455" y="-125"/>
      <point x="86" y="195"/>
      <point x="86" y="623" type="curve" smooth="yes"/>
      <point x="86" y="1028"/>
      <point x="439" y="1372"/>
      <point x="864" y="1372" type="curve" smooth="yes"/>
      <point x="1277" y="1372"/>
      <point x="1642" y="1033"/>
      <point x="1642" y="623" type="curve" smooth="yes"/>
      <point x="1642" y="219"/>
      <point x="1289" y="-125"/>
    </contour>
  </outline>
</glyph>
<glyph name="macron" format="1">
  <advance width="750"/>
  <unicode hex="00af"/>
  <outline>
    <contour>
      <point x="99" y="1179" type="line" smooth="no"/>
      <point x="99" y="1295" type="line" smooth="no"/>
      <point x="651" y="1295" type="line" smooth="no"/>
      <point x="651" y="1179" type="line" smooth="no"/>
    </contour>
  </outline>
</glyph>
<glyph name="degree" format="1">
  <advance width="813"/>
  <unicode hex="00b0"/>
  <outline>
    <contour>
      <point x="407" y="847" type="curve" smooth="yes"/>
      <point x="541" y="847"/>
      <point x="623" y="948"/>
      <point x="623" y="1069" type="curve" smooth="yes"/>
      <point x="623" y="1187"/>
      <point x="541" y="1289"/>
      <point x="407" y="1289" type="curve" smooth="yes"/>
      <point x="273" y="1289"/>
      <point x="190" y="1187"/>
      <point x="190" y="1069" type="curve" smooth="yes"/>
      <point x="190" y="947"/>
      <point x="275" y="847"/>
    </contour>
    <contour>
      <point x="407" y="760" type="curve" smooth="yes"/>
      <point x="228" y="760"/>
      <point x="89" y="897"/>
      <point x="89" y="1069" type="curve" smooth="yes"/>
      <point x="89" y="1241"/>
      <point x="230" y="1375"/>
      <point x="407" y="1375" type="curve" smooth="yes"/>
      <point x="587" y="1375"/>
      <point x="725" y="1240"/>
      <point x="725" y="1069" type="curve" smooth="yes"/>
      <point x="725" y="896"/>
      <point x="587" y="760"/>
    </contour>
  </outline>
</glyph>
<glyph name="plusminus" format="1">
  <advance width="1189"/>
  <unicode hex="00b1"/>
  <outline>
    <contour>
      <point x="521" y="286" type="line" smooth="no"/>
      <point x="521" y="643" type="line" smooth="no"/>
      <point x="148" y="643" type="line" smooth="no"/>
      <point x="148" y="778" type="line" smooth="no"/>
      <point x="521" y="778" type="line" smooth="no"/>
      <point x="521" y="1122" type="line" smooth="no"/>
      <point x="658" y="1122" type="line" smooth="no"/>
      <point x="658" y="778" type="line" smooth="no"/>
      <point x="1042" y="778" type="line" smooth="no"/>
      <point x="1042" y="643" type="line" smooth="no"/>
      <point x="658" y="643" type="line" smooth="no"/>
      <point x="658" y="286" type="line" smooth="no"/>
    </contour>
    <contour>
      <point x="162" y="0" type="line" smooth="no"/>
      <point x="162" y="136" type="line" smooth="no"/>
      <point x="1024" y="136" type="line" smooth="no"/>
      <point x="1024" y="0" type="line" smooth="no"/>
    </contour>
  </outline>
</glyph>
<glyph name="uni00B2" format="1">
  <advance width="1523"/>
  <unicode hex="00b2"/>
  <outline>
    <contour>
      <point x="256" y="0" type="line" smooth="no"/>
      <point x="1088" y="1430" type="line" smooth="no"/>
      <point x="1215" y="1430" type="line" smooth="no"/>
      <point x="383" y="0" type="line" smooth="no"/>
    </contour>
    <contour>
      <point x="914" y="0" type="line" smooth="no"/>
      <point x="914" y="98" type="line" smooth="no"/>
      <point x="1078" y="258"/>
      <point x="1279" y="475"/>
      <point x="1279" y="601" type="curve" smooth="yes"/>
      <point x="1279" y="680"/>
      <point x="1247" y="728"/>
      <point x="1133" y="728" type="curve" smooth="yes"/>
      <point x="1076" y="728"/>
      <point x="981" y="690"/>
      <point x="950" y="661" type="curve" smooth="no"/>
      <point x="926" y="756" type="line" smooth="no"/>
      <point x="962" y="792"/>
      <point x="1070" y="830"/>
      <point x="1152" y="830" type="curve" smooth="yes"/>
      <point x="1311" y="830"/>
      <point x="1396" y="742"/>
      <point x="1396" y="604" type="curve" smooth="yes"/>
      <point x="1396" y="443"/>
      <point x="1259" y="293"/>
      <point x="1064" y="100" type="curve" smooth="no"/>
      <point x="1399" y="100" type="line" smooth="no"/>
      <point x="1399" y="0" type="line" smooth="no"/>
    </contour>
    <contour>
      <point x="10" y="552" type="line" smooth="no"/>
      <point x="10" y="653" type="line" smooth="no"/>
      <point x="151" y="653" type="line" smooth="no"/>
      <point x="151" y="1240" type="line" smooth="no"/>
      <point x="-4" y="1194" type="line" smooth="no"/>
      <point x="-4" y="1277" type="line" smooth="no"/>
      <point x="77" y="1296"/>
      <point x="114" y="1332"/>
      <point x="135" y="1374" type="curve" smooth="no"/>
      <point x="285" y="1374" type="line" smooth="no"/>
      <point x="285" y="653" type="line" smooth="no"/>
      <point x="426" y="653" type="line" smooth="no"/>
      <point x="426" y="552" type="line" smooth="no"/>
    </contour>
  </outline>
</glyph>
<glyph name="acute" format="1">
  <advance width="422"/>
  <unicode hex="00b4"/>
  <outline>
    <contour>
      <point x="5" y="1123" type="line" smooth="no"/>
      <point x="192" y="1466" type="line" smooth="no"/>
      <point x="417" y="1466" type="line" smooth="no"/>
      <point x="128" y="1123" type="line" smooth="no"/>
    </contour>
  </outline>
</glyph>
<glyph name="paragraph" format="1">
  <advance width="1115"/>
  <unicode hex="00b6"/>
  <outline>
    <contour>
      <point x="587" y="-260" type="line" smooth="no"/>
      <point x="587" y="815" type="line" smooth="no"/>
      <point x="258" y="815"/>
      <point x="80" y="909"/>
      <point x="80" y="1151" type="curve" smooth="yes"/>
      <point x="80" y="1389"/>
      <point x="237" y="1481"/>
      <point x="605" y="1481" type="curve" smooth="yes"/>
      <point x="1023" y="1481" type="line" smooth="no"/>
      <point x="1023" y="-260" type="line" smooth="no"/>
      <point x="890" y="-260" type="line" smooth="no"/>
      <point x="890" y="1373" type="line" smooth="no"/>
      <point x="718" y="1373" type="line" smooth="no"/>
      <point x="718" y="-260" type="line" smooth="no"/>
    </contour>
  </outline>
</glyph>
<glyph name="periodcentered" format="1">
  <advance width="484"/>
  <unicode hex="00b7"/>
  <outline>
    <contour>
      <point x="243" y="452" type="curve" smooth="yes"/>
      <point x="160" y="452"/>
      <point x="91" y="517"/>
      <point x="91" y="601" type="curve" smooth="yes"/>
      <point x="91" y="684"/>
      <point x="160" y="751"/>
      <point x="243" y="751" type="curve" smooth="yes"/>
      <point x="326" y="751"/>
      <point x="393" y="684"/>
      <point x="393" y="601" type="curve" smooth="yes"/>
      <point x="393" y="517"/>
      <point x="326" y="452"/>
    </contour>
  </outline>
</glyph>
<glyph name="ordmasculine" format="1">
  <advance width="884"/>
  <unicode hex="00ba"/>
  <outline>
    <contour>
      <point x="443" y="777" type="curve" smooth="yes"/>
      <point x="574" y="777"/>
      <point x="638" y="867"/>
      <point x="638" y="1038" type="curve" smooth="yes"/>
      <point x="638" y="1228"/>
      <point x="572" y="1307"/>
      <point x="443" y="1307" type="curve" smooth="yes"/>
      <point x="334" y="1307"/>
      <point x="245" y="1255"/>
      <point x="245" y="1038" type="curve" smooth="yes"/>
      <point x="245" y="851"/>
      <point x="308" y="777"/>
    </contour>
    <contour>
      <point x="443" y="645" type="curve" smooth="yes"/>
      <point x="221" y="645"/>
      <point x="89" y="784"/>
      <point x="89" y="1038" type="curve" smooth="yes"/>
      <point x="89" y="1296"/>
      <point x="224" y="1429"/>
      <point x="443" y="1429" type="curve" smooth="yes"/>
      <point x="664" y="1429"/>
      <point x="794" y="1296"/>
      <point x="794" y="1038" type="curve" smooth="yes"/>
      <point x="794" y="784"/>
      <point x="664" y="645"/>
    </contour>
  </outline>
</glyph>
<glyph name="guillemotright" format="1">
  <advance width="972"/>
  <unicode hex="00bb"/>
  <outline>
    <contour>
      <point x="52" y="159" type="curve" smooth="no"/>
      <point x="52" y="367" type="line" smooth="no"/>
      <point x="360" y="600" type="line" smooth="no"/>
      <point x="360" y="600"/>
      <point x="58" y="823"/>
      <point x="52" y="827" type="curve" smooth="no"/>
      <point x="52" y="1021" type="line" smooth="no"/>
      <point x="52" y="1021"/>
      <point x="427" y="718"/>
      <point x="521" y="648" type="curve" smooth="no"/>
      <point x="521" y="545" type="line" smooth="no"/>
      <point x="426" y="467"/>
      <point x="52" y="159"/>
    </contour>
    <contour>
      <point x="462" y="159" type="curve" smooth="no"/>
      <point x="462" y="367" type="line" smooth="no"/>
      <point x="769" y="600" type="line" smooth="no"/>
      <point x="769" y="600"/>
      <point x="468" y="823"/>
      <point x="462" y="827" type="curve" smooth="no"/>
      <point x="462" y="1021" type="line" smooth="no"/>
      <point x="462" y="1021"/>
      <point x="837" y="718"/>
      <point x="931" y="648" type="curve" smooth="no"/>
      <point x="931" y="545" type="line" smooth="no"/>
      <point x="836" y="467"/>
      <point x="462" y="159"/>
    </contour>
  </outline>
</glyph>
<glyph name="threequarters" format="1">
  <advance width="1422"/>
  <unicode hex="00be"/>
  <outline>
    <contour>
      <point x="1227" y="0" type="line" smooth="no"/>
      <point x="1227" y="120" type="line" smooth="no"/>
      <point x="818" y="120" type="line" smooth="no"/>
      <point x="818" y="223" type="line" smooth="no"/>
      <point x="1165" y="818" type="line" smooth="no"/>
      <point x="1335" y="818" type="line" smooth="no"/>
      <point x="1335" y="223" type="line" smooth="no"/>
      <point x="1422" y="223" type="line" smooth="no"/>
      <point x="1422" y="120" type="line" smooth="no"/>
      <point x="1335" y="120" type="line" smooth="no"/>
      <point x="1335" y="0" type="line" smooth="no"/>
    </contour>
    <contour>
      <point x="309" y="0" type="line" smooth="no"/>
      <point x="1141" y="1429" type="line" smooth="no"/>
      <point x="1268" y="1429" type="line" smooth="no"/>
      <point x="436" y="0" type="line" smooth="no"/>
    </contour>
    <contour>
      <point x="936" y="223" type="line" smooth="no"/>
      <point x="1227" y="223" type="line" smooth="no"/>
      <point x="1227" y="728" type="line" smooth="no"/>
    </contour>
    <contour>
      <point x="287" y="545" type="curve" smooth="yes"/>
      <point x="165" y="545"/>
      <point x="77" y="584"/>
      <point x="43" y="607" type="curve" smooth="no"/>
      <point x="43" y="704" type="line" smooth="no"/>
      <point x="75" y="704" type="line" smooth="no"/>
      <point x="75" y="704"/>
      <point x="125" y="645"/>
      <point x="273" y="645" type="curve" smooth="yes"/>
      <point x="398" y="645"/>
      <point x="469" y="695"/>
      <point x="469" y="784" type="curve" smooth="yes"/>
      <point x="469" y="860"/>
      <point x="410" y="948"/>
      <point x="254" y="948" type="curve" smooth="yes"/>
      <point x="188" y="948" type="line" smooth="no"/>
      <point x="188" y="1032" type="line" smooth="no"/>
      <point x="254" y="1032" type="line" smooth="yes"/>
      <point x="397" y="1032"/>
      <point x="438" y="1092"/>
      <point x="438" y="1168" type="curve" smooth="yes"/>
      <point x="438" y="1235"/>
      <point x="383" y="1280"/>
      <point x="268" y="1280" type="curve" smooth="yes"/>
      <point x="146" y="1280"/>
      <point x="75" y="1226"/>
      <point x="75" y="1226" type="curve" smooth="no"/>
      <point x="43" y="1226" type="line" smooth="no"/>
      <point x="43" y="1321" type="line" smooth="no"/>
      <point x="93" y="1357"/>
      <point x="188" y="1382"/>
      <point x="283" y="1382" type="curve" smooth="yes"/>
      <point x="484" y="1382"/>
      <point x="571" y="1280"/>
      <point x="571" y="1168" type="curve" smooth="yes"/>
      <point x="571" y="1064"/>
      <point x="505" y="1018"/>
      <point x="438" y="988" type="curve" smooth="no"/>
      <point x="513" y="965"/>
      <point x="600" y="894"/>
      <point x="600" y="784" type="curve" smooth="yes"/>
      <point x="600" y="643"/>
      <point x="484" y="545"/>
    </contour>
  </outline>
</glyph>
<glyph name="questiondown" format="1">
  <advance width="1019"/>
  <unicode hex="00bf"/>
  <outline>
    <contour>
      <point x="744" y="590" type="curve" smooth="no"/>
      <point x="803" y="549" type="line" smooth="no"/>
      <point x="652" y="341"/>
      <point x="435" y="58"/>
      <point x="435" y="-109" type="curve" smooth="yes"/>
      <point x="435" y="-220"/>
      <point x="495" y="-315"/>
      <point x="666" y="-315" type="curve" smooth="yes"/>
      <point x="797" y="-315"/>
      <point x="940" y="-254"/>
      <point x="1037" y="-191" type="curve" smooth="no"/>
      <point x="1037" y="-335" type="line" smooth="no"/>
      <point x="977" y="-371"/>
      <point x="828" y="-454"/>
      <point x="649" y="-454" type="curve" smooth="yes"/>
      <point x="387" y="-454"/>
      <point x="276" y="-298"/>
      <point x="276" y="-125" type="curve" smooth="yes"/>
      <point x="276" y="131"/>
      <point x="547" y="396"/>
    </contour>
    <contour>
      <point x="760" y="1051" type="curve" smooth="yes"/>
      <point x="841" y="1051"/>
      <point x="907" y="988"/>
      <point x="907" y="907" type="curve" smooth="yes"/>
      <point x="907" y="826"/>
      <point x="841" y="760"/>
      <point x="760" y="760" type="curve" smooth="yes"/>
      <point x="679" y="760"/>
      <point x="616" y="826"/>
      <point x="616" y="907" type="curve" smooth="yes"/>
      <point x="616" y="988"/>
      <point x="679" y="1051"/>
    </contour>
  </outline>
</glyph>
<glyph name="multiply" format="1">
  <advance width="1051"/>
  <unicode hex="00d7"/>
  <outline>
    <contour>
      <point x="182" y="40" type="line" smooth="no"/>
      <point x="76" y="146" type="line" smooth="no"/>
      <point x="421" y="487" type="line" smooth="no"/>
      <point x="76" y="830" type="line" smooth="no"/>
      <point x="182" y="937" type="line" smooth="no"/>
      <point x="524" y="593" type="line" smooth="no"/>
      <point x="866" y="937" type="line" smooth="no"/>
      <point x="974" y="830" type="line" smooth="no"/>
      <point x="628" y="487" type="line" smooth="no"/>
      <point x="974" y="146" type="line" smooth="no"/>
      <point x="866" y="40" type="line" smooth="no"/>
      <point x="524" y="385" type="line" smooth="no"/>
    </contour>
  </outline>
</glyph>
<glyph name="germandbls" format="1">
  <advance width="1234"/>
  <unicode hex="00df"/>
  <outline>
    <contour>
      <point x="121" y="0" type="line" smooth="no"/>
      <point x="121" y="1033" type="line" smooth="yes"/>
      <point x="121" y="1334"/>
      <point x="272" y="1503"/>
      <point x="610" y="1503" type="curve" smooth="yes"/>
      <point x="859" y="1503"/>
      <point x="1041" y="1371"/>
      <point x="1041" y="1174" type="curve" smooth="yes"/>
      <point x="1041" y="1055"/>
      <point x="945" y="919"/>
      <point x="795" y="896" type="curve" smooth="no"/>
      <point x="795" y="895" type="line" smooth="no"/>
      <point x="1052" y="826"/>
      <point x="1180" y="634"/>
      <point x="1180" y="436" type="curve" smooth="yes"/>
      <point x="1180" y="205"/>
      <point x="1015" y="0"/>
      <point x="632" y="0" type="curve" smooth="yes"/>
      <point x="510" y="0" type="line" smooth="no"/>
      <point x="510" y="130" type="line" smooth="no"/>
      <point x="624" y="130" type="line" smooth="yes"/>
      <point x="889" y="130"/>
      <point x="1001" y="279"/>
      <point x="1001" y="442" type="curve" smooth="yes"/>
      <point x="1001" y="624"/>
      <point x="861" y="833"/>
      <point x="567" y="833" type="curve" smooth="no"/>
      <point x="567" y="948" type="line" smooth="no"/>
      <point x="785" y="948"/>
      <point x="857" y="1059"/>
      <point x="857" y="1173" type="curve" smooth="yes"/>
      <point x="857" y="1277"/>
      <point x="763" y="1367"/>
      <point x="594" y="1367" type="curve" smooth="yes"/>
      <point x="441" y="1367"/>
      <point x="303" y="1298"/>
      <point x="303" y="1055" type="curve" smooth="yes"/>
      <point x="303" y="0" type="line" smooth="no"/>
    </contour>
  </outline>
</glyph>
<glyph name="divide" format="1">
  <advance width="1187"/>
  <unicode hex="00f7"/>
  <outline>
    <contour>
      <point x="578" y="0" type="curve" smooth="yes"/>
      <point x="493" y="0"/>
      <point x="425" y="70"/>
      <point x="425" y="154" type="curve" smooth="yes"/>
      <point x="425" y="239"/>
      <point x="493" y="309"/>
      <point x="578" y="309" type="curve" smooth="yes"/>
      <point x="664" y="309"/>
      <point x="733" y="239"/>
      <point x="733" y="154" type="curve" smooth="yes"/>
      <point x="733" y="70"/>
      <point x="664" y="0"/>
    </contour>
    <contour>
      <point x="98" y="448" type="line" smooth="no"/>
      <point x="98" y="604" type="line" smooth="no"/>
      <point x="1089" y="604" type="line" smooth="no"/>
      <point x="1089" y="448" type="line" smooth="no"/>
    </contour>
    <contour>
      <point x="578" y="737" type="curve" smooth="yes"/>
      <point x="493" y="737"/>
      <point x="425" y="808"/>
      <point x="425" y="893" type="curve" smooth="yes"/>
      <point x="425" y="978"/>
      <point x="493" y="1047"/>
      <point x="578" y="1047" type="curve" smooth="yes"/>
      <point x="664" y="1047"/>
      <point x="733" y="978"/>
      <point x="733" y="893" type="curve" smooth="yes"/>
      <point x="733" y="808"/>
      <point x="664" y="737"/>
    </contour>
  </outline>
</glyph>
<glyph name="oslash" format="1">
  <advance width="1178"/>
  <unicode hex="00f8"/>
  <outline>
    <contour>
      <point x="588" y="-21" type="curve" smooth="yes"/>
      <point x="476" y="-21"/>
      <point x="365" y="9"/>
      <point x="276" y="77" type="curve" smooth="no"/>
      <point x="208" y="-4" type="line" smooth="no"/>
      <point x="75" y="-4" type="line" smooth="no"/>
      <point x="204" y="146" type="line" smooth="no"/>
      <point x="133" y="233"/>
      <point x="89" y="356"/>
      <point x="89" y="521" type="curve" smooth="yes"/>
      <point x="89" y="911"/>
      <point x="346" y="1058"/>
      <point x="588" y="1058" type="curve" smooth="yes"/>
      <point x="705" y="1058"/>
      <point x="820" y="1029"/>
      <point x="910" y="957" type="curve" smooth="no"/>
      <point x="979" y="1034" type="line" smooth="no"/>
      <point x="1112" y="1034" type="line" smooth="no"/>
      <point x="982" y="885" type="line" smooth="no"/>
      <point x="1050" y="799"/>
      <point x="1092" y="681"/>
      <point x="1092" y="520" type="curve" smooth="yes"/>
      <point x="1092" y="133"/>
      <point x="847" y="-21"/>
    </contour>
    <contour>
      <point x="323" y="281" type="curve" smooth="no"/>
      <point x="803" y="832" type="line" smooth="no"/>
      <point x="748" y="884"/>
      <point x="676" y="908"/>
      <point x="588" y="908" type="curve" smooth="yes"/>
      <point x="408" y="908"/>
      <point x="271" y="772"/>
      <point x="271" y="519" type="curve" smooth="yes"/>
      <point x="271" y="423"/>
      <point x="289" y="343"/>
    </contour>
    <contour>
      <point x="590" y="126" type="curve" smooth="yes"/>
      <point x="803" y="126"/>
      <point x="909" y="279"/>
      <point x="909" y="517" type="curve" smooth="yes"/>
      <point x="909" y="611"/>
      <point x="893" y="689"/>
      <point x="863" y="749" type="curve" smooth="no"/>
      <point x="386" y="201" type="line" smooth="no"/>
      <point x="439" y="153"/>
      <point x="510" y="126"/>
    </contour>
  </outline>
</glyph>
<glyph name="thorn" format="1">
  <advance width="1157"/>
  <unicode hex="00fe"/>
  <outline>
    <contour>
      <point x="132" y="-388" type="line" smooth="no"/>
      <point x="132" y="1481" type="line" smooth="no"/>
      <point x="313" y="1481" type="line" smooth="no"/>
      <point x="313" y="889" type="line" smooth="no"/>
      <point x="376" y="989"/>
      <point x="500" y="1058"/>
      <point x="623" y="1058" type="curve" smooth="yes"/>
      <point x="896" y="1058"/>
      <point x="1070" y="855"/>
      <point x="1070" y="510" type="curve" smooth="yes"/>
      <point x="1070" y="158"/>
      <point x="883" y="-21"/>
      <point x="630" y="-21" type="curve" smooth="yes"/>
      <point x="508" y="-21"/>
      <point x="387" y="28"/>
      <point x="313" y="119" type="curve" smooth="no"/>
      <point x="313" y="-388" type="line" smooth="no"/>
    </contour>
    <contour>
      <point x="600" y="119" type="curve" smooth="yes"/>
      <point x="784" y="119"/>
      <point x="887" y="264"/>
      <point x="887" y="511" type="curve" smooth="yes"/>
      <point x="887" y="725"/>
      <point x="835" y="918"/>
      <point x="608" y="918" type="curve" smooth="yes"/>
      <point x="529" y="918"/>
      <point x="385" y="884"/>
      <point x="313" y="791" type="curve" smooth="no"/>
      <point x="313" y="231" type="line" smooth="no"/>
      <point x="394" y="133"/>
      <point x="548" y="119"/>
    </contour>
  </outline>
</glyph>
<glyph name="dcroat" format="1">
  <advance width="1141"/>
  <unicode hex="0111"/>
  <outline>
    <contour>
      <point x="573" y="119" type="curve" smooth="yes"/>
      <point x="704" y="119"/>
      <point x="827" y="195"/>
      <point x="848" y="247" type="curve" smooth="no"/>
      <point x="848" y="793" type="line" smooth="no"/>
      <point x="823" y="848"/>
      <point x="700" y="918"/>
      <point x="571" y="918" type="curve" smooth="yes"/>
      <point x="398" y="918"/>
      <point x="270" y="776"/>
      <point x="270" y="521" type="curve" smooth="yes"/>
      <point x="270" y="284"/>
      <point x="365" y="119"/>
    </contour>
    <contour>
      <point x="528" y="1208" type="line" smooth="no"/>
      <point x="528" y="1324" type="line" smooth="no"/>
      <point x="848" y="1324" type="line" smooth="no"/>
      <point x="848" y="1429" type="line" smooth="no"/>
      <point x="1030" y="1429" type="line" smooth="no"/>
      <point x="1030" y="1324" type="line" smooth="no"/>
      <point x="1141" y="1324" type="line" smooth="no"/>
      <point x="1141" y="1208" type="line" smooth="no"/>
      <point x="1030" y="1208" type="line" smooth="no"/>
      <point x="1030" y="0" type="line" smooth="no"/>
      <point x="848" y="0" type="line" smooth="no"/>
      <point x="848" y="142" type="line" smooth="no"/>
      <point x="797" y="40"/>
      <point x="675" y="-21"/>
      <point x="547" y="-21" type="curve" smooth="yes"/>
      <point x="303" y="-21"/>
      <point x="93" y="156"/>
      <point x="93" y="511" type="curve" smooth="yes"/>
      <point x="93" y="869"/>
      <point x="293" y="1058"/>
      <point x="531" y="1058" type="curve" smooth="yes"/>
      <point x="638" y="1058"/>
      <point x="786" y="1022"/>
      <point x="848" y="911" type="curve" smooth="no"/>
      <point x="848" y="1208" type="line" smooth="no"/>
    </contour>
  </outline>
</glyph>
<glyph name="gcommaaccent" format="1">
  <advance width="1151"/>
  <unicode hex="0123"/>
  <outline>
    <contour>
      <point x="745" y="1746" type="line"/>
      <point x="646" y="1260" type="line"/>
      <point x="453" y="1260" type="line"/>
      <point x="618" y="1746" type="line"/>
    </contour>
    <component base="g"/>
  </outline>
</glyph>
<glyph name="Hbar" format="1">
  <advance width="1390"/>
  <unicode hex="0126"/>
  <outline>
    <contour>
      <point x="1072" y="1208" type="line" smooth="no"/>
      <point x="318" y="1208" type="line" smooth="no"/>
      <point x="318" y="830" type="line" smooth="no"/>
      <point x="1072" y="830" type="line" smooth="no"/>
    </contour>
    <contour>
      <point x="55" y="1208" type="line" smooth="no"/>
      <point x="55" y="1324" type="line" smooth="no"/>
      <point x="135" y="1324" type="line" smooth="no"/>
      <point x="135" y="1481" type="line" smooth="no"/>
      <point x="318" y="1481" type="line" smooth="no"/>
      <point x="318" y="1324" type="line" smooth="no"/>
      <point x="1072" y="1324" type="line" smooth="no"/>
      <point x="1072" y="1481" type="line" smooth="no"/>
      <point x="1255" y="1481" type="line" smooth="no"/>
      <point x="1255" y="1324" type="line" smooth="no"/>
      <point x="1333" y="1324" type="line" smooth="no"/>
      <point x="1333" y="1208" type="line" smooth="no"/>
      <point x="1255" y="1208" type="line" smooth="no"/>
      <point x="1255" y="0" type="line" smooth="no"/>
      <point x="1072" y="0" type="line" smooth="no"/>
      <point x="1072" y="697" type="line" smooth="no"/>
      <point x="318" y="697" type="line" smooth="no"/>
      <point x="318" y="0" type="line" smooth="no"/>
      <point x="135" y="0" type="line" smooth="no"/>
      <point x="135" y="1208" type="line" smooth="no"/>
    </contour>
  </outline>
</glyph>
<glyph name="dotlessi" format="1">
  <advance width="497"/>
  <unicode hex="0131"/>
  <outline>
    <contour>
      <point x="151" y="0" type="line" smooth="no"/>
      <point x="151" y="1032" type="line" smooth="no"/>
      <point x="334" y="1032" type="line" smooth="no"/>
      <point x="334" y="0" type="line" smooth="no"/>
    </contour>
  </outline>
</glyph>
<glyph name="Lslash" format="1">
  <advance width="1116"/>
  <unicode hex="0141"/>
  <outline>
    <contour>
      <point x="227" y="0" type="line" smooth="no"/>
      <point x="227" y="524" type="line" smooth="no"/>
      <point x="75" y="415" type="line" smooth="no"/>
      <point x="75" y="567" type="line" smooth="no"/>
      <point x="227" y="675" type="line" smooth="no"/>
      <point x="227" y="1481" type="line" smooth="no"/>
      <point x="409" y="1481" type="line" smooth="no"/>
      <point x="409" y="807" type="line" smooth="no"/>
      <point x="722" y="1033" type="line" smooth="no"/>
      <point x="722" y="882" type="line" smooth="no"/>
      <point x="409" y="656" type="line" smooth="no"/>
      <point x="409" y="137" type="line" smooth="no"/>
      <point x="1078" y="137" type="line" smooth="no"/>
      <point x="1078" y="0" type="line" smooth="no"/>
    </contour>
  </outline>
</glyph>
<glyph name="lslash" format="1">
  <advance width="567"/>
  <unicode hex="0142"/>
  <outline>
    <contour>
      <point x="452" y="-9" type="line" smooth="yes"/>
      <point x="136" y="-9"/>
      <point x="133" y="134"/>
      <point x="133" y="316" type="curve" smooth="yes"/>
      <point x="133" y="622" type="line" smooth="no"/>
      <point x="26" y="541" type="line" smooth="no"/>
      <point x="26" y="683" type="line" smooth="no"/>
      <point x="133" y="766" type="line" smooth="no"/>
      <point x="133" y="1429" type="line" smooth="no"/>
      <point x="316" y="1429" type="line" smooth="no"/>
      <point x="316" y="905" type="line" smooth="no"/>
      <point x="480" y="1033" type="line" smooth="no"/>
      <point x="480" y="890" type="line" smooth="no"/>
      <point x="316" y="762" type="line" smooth="no"/>
      <point x="316" y="310" type="line" smooth="yes"/>
      <point x="316" y="162"/>
      <point x="328" y="136"/>
      <point x="534" y="136" type="curve" smooth="no"/>
      <point x="534" y="-9" type="line" smooth="no"/>
    </contour>
  </outline>
</glyph>
<glyph name="circumflex" format="1">
  <advance width="858"/>
  <unicode hex="02c6"/>
  <outline>
    <contour>
      <point x="76" y="1164" type="line" smooth="no"/>
      <point x="363" y="1506" type="line" smooth="no"/>
      <point x="494" y="1506" type="line" smooth="no"/>
      <point x="782" y="1164" type="line" smooth="no"/>
      <point x="630" y="1164" type="line" smooth="no"/>
      <point x="427" y="1398" type="line" smooth="no"/>
      <point x="228" y="1164" type="line" smooth="no"/>
    </contour>
  </outline>
</glyph>
<glyph name="caron" format="1">
  <advance width="872"/>
  <unicode hex="02c7"/>
  <outline>
    <contour>
      <point x="368" y="1094" type="line" smooth="no"/>
      <point x="79" y="1435" type="line" smooth="no"/>
      <point x="235" y="1435" type="line" smooth="no"/>
      <point x="428" y="1204" type="line" smooth="no"/>
      <point x="645" y="1435" type="line" smooth="no"/>
      <point x="793" y="1435" type="line" smooth="no"/>
      <point x="486" y="1094" type="line" smooth="no"/>
    </contour>
  </outline>
</glyph>
<glyph name="uni02C9" format="1">
  <advance width="989"/>
  <unicode hex="02c9"/>
  <outline>
    <contour>
      <point x="216" y="1159" type="line" smooth="no"/>
      <point x="216" y="1293" type="line" smooth="no"/>
      <point x="771" y="1293" type="line" smooth="no"/>
      <point x="771" y="1159" type="line" smooth="no"/>
    </contour>
  </outline>
</glyph>
<glyph name="breve" format="1">
  <advance width="857"/>
  <unicode hex="02d8"/>
  <outline>
    <contour>
      <point x="746" y="1464" type="line" smooth="no"/>
      <point x="743" y="1257"/>
      <point x="620" y="1147"/>
      <point x="428" y="1147" type="curve" smooth="yes"/>
      <point x="221" y="1147"/>
      <point x="114" y="1257"/>
      <point x="111" y="1464" type="curve" smooth="no"/>
      <point x="251" y="1464" type="line" smooth="no"/>
      <point x="259" y="1364"/>
      <point x="298" y="1290"/>
      <point x="428" y="1290" type="curve" smooth="yes"/>
      <point x="546" y="1290"/>
      <point x="595" y="1360"/>
      <point x="603" y="1464" type="curve" smooth="no"/>
    </contour>
  </outline>
</glyph>
<glyph name="dotaccent" format="1">
  <advance width="487"/>
  <unicode hex="02d9"/>
  <outline>
    <contour>
      <point x="233" y="1104" type="curve" smooth="yes"/>
      <point x="150" y="1104"/>
      <point x="83" y="1171"/>
      <point x="83" y="1254" type="curve" smooth="yes"/>
      <point x="83" y="1337"/>
      <point x="150" y="1405"/>
      <point x="233" y="1405" type="curve" smooth="yes"/>
      <point x="316" y="1405"/>
      <point x="384" y="1337"/>
      <point x="384" y="1254" type="curve" smooth="yes"/>
      <point x="384" y="1171"/>
      <point x="316" y="1104"/>
    </contour>
  </outline>
</glyph>
<glyph name="tilde" format="1">
  <advance width="856"/>
  <unicode hex="02dc"/>
  <outline>
    <contour>
      <point x="588" y="1096" type="curve" smooth="yes"/>
      <point x="469" y="1096"/>
      <point x="353" y="1201"/>
      <point x="278" y="1201" type="curve" smooth="yes"/>
      <point x="237" y="1201"/>
      <point x="220" y="1165"/>
      <point x="217" y="1097" type="curve" smooth="no"/>
      <point x="78" y="1097" type="line" smooth="no"/>
      <point x="78" y="1257"/>
      <point x="155" y="1334"/>
      <point x="264" y="1334" type="curve" smooth="yes"/>
      <point x="401" y="1334"/>
      <point x="513" y="1227"/>
      <point x="573" y="1227" type="curve" smooth="yes"/>
      <point x="620" y="1227"/>
      <point x="636" y="1264"/>
      <point x="640" y="1335" type="curve" smooth="no"/>
      <point x="778" y="1335" type="line" smooth="no"/>
      <point x="778" y="1161"/>
      <point x="703" y="1096"/>
    </contour>
  </outline>
</glyph>
<glyph name="hungarumlaut" format="1">
  <advance width="667"/>
  <unicode hex="02dd"/>
  <outline>
    <contour>
      <point x="2" y="1123" type="line" smooth="no"/>
      <point x="190" y="1466" type="line" smooth="no"/>
      <point x="374" y="1466" type="line" smooth="no"/>
      <point x="123" y="1123" type="line" smooth="no"/>
    </contour>
    <contour>
      <point x="253" y="1123" type="line" smooth="no"/>
      <point x="453" y="1466" type="line" smooth="no"/>
      <point x="665" y="1466" type="line" smooth="no"/>
      <point x="375" y="1123" type="line" smooth="no"/>
    </contour>
  </outline>
</glyph>
<glyph name="uni030F" format="1">
  <advance width="667"/>
  <unicode hex="030f"/>
  <outline>
    <contour>
      <point x="665" y="1123" type="line" smooth="no"/>
      <point x="544" y="1123" type="line" smooth="no"/>
      <point x="293" y="1466" type="line" smooth="no"/>
      <point x="477" y="1466" type="line" smooth="no"/>
    </contour>
    <contour>
      <point x="414" y="1123" type="line" smooth="no"/>
      <point x="292" y="1123" type="line" smooth="no"/>
      <point x="2" y="1466" type="line" smooth="no"/>
      <point x="214" y="1466" type="line" smooth="no"/>
    </contour>
  </outline>
</glyph>
<glyph name="uni0326" format="1">
  <advance width="470"/>
  <unicode hex="0326"/>
  <outline>
    <contour>
      <point x="72" y="-146" type="line" smooth="no"/>
      <point x="171" y="340" type="line" smooth="no"/>
      <point x="364" y="340" type="line" smooth="no"/>
      <point x="199" y="-146" type="line" smooth="no"/>
    </contour>
  </outline>
</glyph>
<glyph name="quoteleft" format="1">
  <advance width="371"/>
  <unicode hex="2018"/>
  <outline>
    <contour>
      <point x="208" y="1012" type="line" smooth="no"/>
      <point x="39" y="1481" type="line" smooth="no"/>
      <point x="231" y="1481" type="line" smooth="no"/>
      <point x="328" y="1012" type="line" smooth="no"/>
    </contour>
  </outline>
</glyph>
<glyph name="quoteright" format="1">
  <advance width="373"/>
  <unicode hex="2019"/>
  <outline>
    <contour>
      <point x="43" y="995" type="line" smooth="no"/>
      <point x="142" y="1481" type="line" smooth="no"/>
      <point x="335" y="1481" type="line" smooth="no"/>
      <point x="170" y="995" type="line" smooth="no"/>
    </contour>
  </outline>
</glyph>
<glyph name="quotesinglbase" format="1">
  <advance width="420"/>
  <unicode hex="201a"/>
  <outline>
    <contour>
      <point x="53" y="-242" type="line" smooth="no"/>
      <point x="152" y="244" type="line" smooth="no"/>
      <point x="345" y="244" type="line" smooth="no"/>
      <point x="180" y="-242" type="line" smooth="no"/>
    </contour>
  </outline>
</glyph>
<glyph name="quotedblleft" format="1">
  <advance width="693"/>
  <unicode hex="201c"/>
  <outline>
    <contour>
      <point x="216" y="1012" type="line" smooth="no"/>
      <point x="42" y="1481" type="line" smooth="no"/>
      <point x="234" y="1481" type="line" smooth="no"/>
      <point x="331" y="1012" type="line" smooth="no"/>
    </contour>
    <contour>
      <point x="526" y="1012" type="line" smooth="no"/>
      <point x="353" y="1481" type="line" smooth="no"/>
      <point x="545" y="1481" type="line" smooth="no"/>
      <point x="641" y="1012" type="line" smooth="no"/>
    </contour>
  </outline>
</glyph>
<glyph name="quotedblright" format="1">
  <advance width="694"/>
  <unicode hex="201d"/>
  <outline>
    <contour>
      <point x="52" y="995" type="line" smooth="no"/>
      <point x="142" y="1481" type="line" smooth="no"/>
      <point x="335" y="1481" type="line" smooth="no"/>
      <point x="170" y="995" type="line" smooth="no"/>
    </contour>
    <contour>
      <point x="371" y="995" type="line" smooth="no"/>
      <point x="462" y="1481" type="line" smooth="no"/>
      <point x="656" y="1481" type="line" smooth="no"/>
      <point x="489" y="995" type="line" smooth="no"/>
    </contour>
  </outline>
</glyph>
<glyph name="quotedblbase" format="1">
  <advance width="833"/>
  <unicode hex="201e"/>
  <outline>
    <contour>
      <point x="108" y="-242" type="line" smooth="no"/>
      <point x="198" y="244" type="line" smooth="no"/>
      <point x="391" y="244" type="line" smooth="no"/>
      <point x="226" y="-242" type="line" smooth="no"/>
    </contour>
    <contour>
      <point x="427" y="-242" type="line" smooth="no"/>
      <point x="518" y="244" type="line" smooth="no"/>
      <point x="712" y="244" type="line" smooth="no"/>
      <point x="545" y="-242" type="line" smooth="no"/>
    </contour>
  </outline>
</glyph>
<glyph name="perthousand" format="1">
  <advance width="2463"/>
  <unicode hex="2030"/>
  <outline>
    <contour>
      <point x="380" y="824" type="curve" smooth="yes"/>
      <point x="499" y="824"/>
      <point x="561" y="907"/>
      <point x="561" y="1115" type="curve" smooth="yes"/>
      <point x="561" y="1312"/>
      <point x="503" y="1390"/>
      <point x="378" y="1390" type="curve" smooth="yes"/>
      <point x="257" y="1390"/>
      <point x="194" y="1311"/>
      <point x="194" y="1100" type="curve" smooth="yes"/>
      <point x="194" y="905"/>
      <point x="254" y="824"/>
    </contour>
    <contour>
      <point x="378" y="725" type="curve" smooth="yes"/>
      <point x="141" y="725"/>
      <point x="66" y="890"/>
      <point x="66" y="1100" type="curve" smooth="yes"/>
      <point x="66" y="1311"/>
      <point x="142" y="1481"/>
      <point x="380" y="1481" type="curve" smooth="yes"/>
      <point x="613" y="1481"/>
      <point x="687" y="1318"/>
      <point x="687" y="1110" type="curve" smooth="yes"/>
      <point x="687" y="897"/>
      <point x="608" y="725"/>
    </contour>
    <contour>
      <point x="404" y="0" type="line" smooth="no"/>
      <point x="1173" y="1481" type="line" smooth="no"/>
      <point x="1313" y="1481" type="line" smooth="no"/>
      <point x="551" y="0" type="line" smooth="no"/>
    </contour>
    <contour>
      <point x="1343" y="98" type="curve" smooth="yes"/>
      <point x="1463" y="98"/>
      <point x="1527" y="180"/>
      <point x="1527" y="388" type="curve" smooth="yes"/>
      <point x="1527" y="585"/>
      <point x="1468" y="662"/>
      <point x="1343" y="662" type="curve" smooth="yes"/>
      <point x="1223" y="662"/>
      <point x="1160" y="585"/>
      <point x="1160" y="374" type="curve" smooth="yes"/>
      <point x="1160" y="180"/>
      <point x="1218" y="98"/>
    </contour>
    <contour>
      <point x="1343" y="-1" type="curve" smooth="yes"/>
      <point x="1107" y="-1"/>
      <point x="1031" y="164"/>
      <point x="1031" y="374" type="curve" smooth="yes"/>
      <point x="1031" y="585"/>
      <point x="1110" y="756"/>
      <point x="1343" y="756" type="curve" smooth="yes"/>
      <point x="1581" y="756"/>
      <point x="1653" y="593"/>
      <point x="1653" y="385" type="curve" smooth="yes"/>
      <point x="1653" y="172"/>
      <point x="1574" y="-1"/>
    </contour>
    <contour>
      <point x="2087" y="98" type="curve" smooth="yes"/>
      <point x="2207" y="98"/>
      <point x="2271" y="180"/>
      <point x="2271" y="388" type="curve" smooth="yes"/>
      <point x="2271" y="585"/>
      <point x="2212" y="662"/>
      <point x="2087" y="662" type="curve" smooth="yes"/>
      <point x="1967" y="662"/>
      <point x="1904" y="585"/>
      <point x="1904" y="374" type="curve" smooth="yes"/>
      <point x="1904" y="180"/>
      <point x="1962" y="98"/>
    </contour>
    <contour>
      <point x="2087" y="-1" type="curve" smooth="yes"/>
      <point x="1851" y="-1"/>
      <point x="1775" y="164"/>
      <point x="1775" y="374" type="curve" smooth="yes"/>
      <point x="1775" y="585"/>
      <point x="1854" y="756"/>
      <point x="2087" y="756" type="curve" smooth="yes"/>
      <point x="2325" y="756"/>
      <point x="2397" y="593"/>
      <point x="2397" y="385" type="curve" smooth="yes"/>
      <point x="2397" y="172"/>
      <point x="2318" y="-1"/>
    </contour>
  </outline>
</glyph>
<glyph name="guilsinglleft" format="1">
  <advance width="509"/>
  <unicode hex="2039"/>
  <outline>
    <contour>
      <point x="505" y="159" type="line" smooth="no"/>
      <point x="505" y="159"/>
      <point x="99" y="457"/>
      <point x="-3" y="533" type="curve" smooth="no"/>
      <point x="-3" y="634" type="line" smooth="no"/>
      <point x="100" y="719"/>
      <point x="505" y="1021"/>
      <point x="505" y="1021" type="curve" smooth="no"/>
      <point x="505" y="814" type="line" smooth="no"/>
      <point x="158" y="583" type="line" smooth="no"/>
      <point x="164" y="578"/>
      <point x="499" y="358"/>
      <point x="505" y="354" type="curve" smooth="no"/>
    </contour>
  </outline>
</glyph>
<glyph name="guilsinglright" format="1">
  <advance width="595"/>
  <unicode hex="203a"/>
  <outline>
    <contour>
      <point x="49" y="159" type="curve" smooth="no"/>
      <point x="49" y="367" type="line" smooth="no"/>
      <point x="395" y="599" type="line" smooth="no"/>
      <point x="389" y="604"/>
      <point x="54" y="823"/>
      <point x="49" y="827" type="curve" smooth="no"/>
      <point x="49" y="1021" type="line" smooth="no"/>
      <point x="49" y="1021"/>
      <point x="455" y="724"/>
      <point x="557" y="648" type="curve" smooth="no"/>
      <point x="557" y="545" type="line" smooth="no"/>
      <point x="454" y="460"/>
      <point x="49" y="159"/>
    </contour>
  </outline>
</glyph>
<glyph name="fraction" format="1">
  <advance width="862"/>
  <unicode hex="2044"/>
  <outline>
    <contour>
      <point x="-10" y="-1" type="line" smooth="no"/>
      <point x="701" y="1427" type="line" smooth="no"/>
      <point x="872" y="1427" type="line" smooth="no"/>
      <point x="165" y="-1" type="line" smooth="no"/>
    </contour>
  </outline>
</glyph>
<glyph name="Euro" format="1">
  <advance width="1239"/>
  <unicode hex="20ac"/>
  <outline>
    <contour>
      <point x="836" y="-23" type="curve" smooth="yes"/>
      <point x="456" y="-23"/>
      <point x="232" y="173"/>
      <point x="152" y="577" type="curve" smooth="no"/>
      <point x="-10" y="577" type="line" smooth="no"/>
      <point x="19" y="684" type="line" smooth="no"/>
      <point x="146" y="684" type="line" smooth="no"/>
      <point x="144" y="707"/>
      <point x="144" y="731"/>
      <point x="144" y="751" type="curve" smooth="yes"/>
      <point x="144" y="785"/>
      <point x="146" y="819"/>
      <point x="146" y="819" type="curve" smooth="no"/>
      <point x="-8" y="819" type="line" smooth="no"/>
      <point x="10" y="923" type="line" smooth="no"/>
      <point x="153" y="923" type="line" smooth="no"/>
      <point x="231" y="1334"/>
      <point x="490" y="1503"/>
      <point x="826" y="1503" type="curve" smooth="yes"/>
      <point x="967" y="1503"/>
      <point x="1117" y="1471"/>
      <point x="1236" y="1365" type="curve" smooth="no"/>
      <point x="1236" y="1133" type="line" smooth="no"/>
      <point x="1173" y="1133" type="line" smooth="no"/>
      <point x="1113" y="1293"/>
      <point x="987" y="1374"/>
      <point x="801" y="1374" type="curve" smooth="yes"/>
      <point x="633" y="1374"/>
      <point x="387" y="1296"/>
      <point x="328" y="923" type="curve" smooth="no"/>
      <point x="1064" y="923" type="line" smooth="no"/>
      <point x="1036" y="819" type="line" smooth="no"/>
      <point x="316" y="819" type="line" smooth="no"/>
      <point x="315" y="811"/>
      <point x="312" y="756"/>
      <point x="312" y="721" type="curve" smooth="yes"/>
      <point x="312" y="705"/>
      <point x="313" y="693"/>
      <point x="314" y="684" type="curve" smooth="no"/>
      <point x="1020" y="684" type="line" smooth="no"/>
      <point x="993" y="577" type="line" smooth="no"/>
      <point x="326" y="577" type="line" smooth="no"/>
      <point x="361" y="332"/>
      <point x="509" y="119"/>
      <point x="808" y="119" type="curve" smooth="yes"/>
      <point x="896" y="119"/>
      <point x="1122" y="124"/>
      <point x="1156" y="347" type="curve" smooth="no"/>
      <point x="1236" y="347" type="line" smooth="no"/>
      <point x="1236" y="114" type="line" smooth="no"/>
      <point x="1111" y="0"/>
      <point x="940" y="-23"/>
    </contour>
  </outline>
</glyph>
<glyph name="product" format="1">
  <advance width="1277"/>
  <unicode hex="220f"/>
  <outline>
    <contour>
      <point x="98" y="0" type="line" smooth="no"/>
      <point x="98" y="1481" type="line" smooth="no"/>
      <point x="1178" y="1481" type="line" smooth="no"/>
      <point x="1178" y="0" type="line" smooth="no"/>
      <point x="996" y="0" type="line" smooth="no"/>
      <point x="996" y="1342" type="line" smooth="no"/>
      <point x="280" y="1342" type="line" smooth="no"/>
      <point x="280" y="0" type="line" smooth="no"/>
    </contour>
  </outline>
</glyph>
<glyph name="uni2215" format="1">
  <advance width="862"/>
  <unicode hex="2215"/>
  <outline>
    <contour>
      <point x="-10" y="-1" type="line" smooth="no"/>
      <point x="701" y="1427" type="line" smooth="no"/>
      <point x="872" y="1427" type="line" smooth="no"/>
      <point x="165" y="-1" type="line" smooth="no"/>
    </contour>
  </outline>
</glyph>
<glyph name="infinity" format="1">
  <advance width="1531"/>
  <unicode hex="221e"/>
  <outline>
    <contour>
      <point x="1118" y="203" type="curve" smooth="yes"/>
      <point x="987" y="203"/>
      <point x="868" y="308"/>
      <point x="766" y="463" type="curve" smooth="no"/>
      <point x="671" y="326"/>
      <point x="553" y="209"/>
      <point x="411" y="209" type="curve" smooth="yes"/>
      <point x="222" y="209"/>
      <point x="89" y="351"/>
      <point x="89" y="558" type="curve" smooth="yes"/>
      <point x="89" y="751"/>
      <point x="225" y="903"/>
      <point x="414" y="903" type="curve" smooth="yes"/>
      <point x="556" y="903"/>
      <point x="677" y="785"/>
      <point x="768" y="644" type="curve" smooth="no"/>
      <point x="857" y="772"/>
      <point x="975" y="898"/>
      <point x="1123" y="898" type="curve" smooth="yes"/>
      <point x="1316" y="897"/>
      <point x="1442" y="758"/>
      <point x="1442" y="551" type="curve" smooth="yes"/>
      <point x="1442" y="354"/>
      <point x="1300" y="203"/>
    </contour>
    <contour>
      <point x="416" y="340" type="curve" smooth="yes"/>
      <point x="509" y="340"/>
      <point x="636" y="445"/>
      <point x="707" y="553" type="curve" smooth="no"/>
      <point x="635" y="668"/>
      <point x="510" y="775"/>
      <point x="412" y="775" type="curve" smooth="yes"/>
      <point x="309" y="775"/>
      <point x="224" y="681"/>
      <point x="224" y="556" type="curve" smooth="yes"/>
      <point x="224" y="429"/>
      <point x="312" y="340"/>
    </contour>
    <contour>
      <point x="1130" y="333" type="curve" smooth="yes"/>
      <point x="1232" y="333"/>
      <point x="1315" y="417"/>
      <point x="1315" y="549" type="curve" smooth="yes"/>
      <point x="1315" y="689"/>
      <point x="1229" y="769"/>
      <point x="1127" y="769" type="curve" smooth="yes"/>
      <point x="1032" y="769"/>
      <point x="890" y="653"/>
      <point x="824" y="551" type="curve" smooth="no"/>
      <point x="907" y="428"/>
      <point x="1041" y="333"/>
    </contour>
  </outline>
</glyph>
<glyph name="approxequal" format="1">
  <advance width="1045"/>
  <unicode hex="2248"/>
  <outline>
    <contour>
      <point x="196" y="220" type="curve" smooth="no"/>
      <point x="64" y="241" type="line" smooth="no"/>
      <point x="87" y="415"/>
      <point x="169" y="494"/>
      <point x="328" y="494" type="curve" smooth="yes"/>
      <point x="407" y="494"/>
      <point x="479" y="463"/>
      <point x="549" y="424" type="curve" smooth="no"/>
      <point x="621" y="381"/>
      <point x="685" y="353"/>
      <point x="723" y="363" type="curve" smooth="no"/>
      <point x="797" y="374"/>
      <point x="843" y="415"/>
      <point x="852" y="498" type="curve" smooth="no"/>
      <point x="981" y="475" type="line" smooth="no"/>
      <point x="958" y="307"/>
      <point x="883" y="226"/>
      <point x="723" y="226" type="curve" smooth="yes"/>
      <point x="658" y="226"/>
      <point x="586" y="252"/>
      <point x="491" y="305" type="curve" smooth="yes"/>
      <point x="423" y="343"/>
      <point x="374" y="367"/>
      <point x="337" y="367" type="curve" smooth="yes"/>
      <point x="255" y="367"/>
      <point x="213" y="309"/>
    </contour>
    <contour>
      <point x="196" y="607" type="curve" smooth="no"/>
      <point x="64" y="628" type="line" smooth="no"/>
      <point x="87" y="801"/>
      <point x="169" y="878"/>
      <point x="329" y="878" type="curve" smooth="yes"/>
      <point x="406" y="878"/>
      <point x="480" y="847"/>
      <point x="549" y="807" type="curve" smooth="yes"/>
      <point x="615" y="768"/>
      <point x="711" y="745"/>
      <point x="715" y="746" type="curve" smooth="yes"/>
      <point x="794" y="748"/>
      <point x="841" y="797"/>
      <point x="852" y="882" type="curve" smooth="no"/>
      <point x="981" y="860" type="line" smooth="no"/>
      <point x="958" y="692"/>
      <point x="882" y="610"/>
      <point x="724" y="610" type="curve" smooth="yes"/>
      <point x="657" y="610"/>
      <point x="584" y="636"/>
      <point x="491" y="690" type="curve" smooth="no"/>
      <point x="425" y="727"/>
      <point x="375" y="750"/>
      <point x="337" y="750" type="curve" smooth="yes"/>
      <point x="255" y="750"/>
      <point x="213" y="694"/>
    </contour>
  </outline>
</glyph>
<glyph name="notequal" format="1">
  <advance width="1094"/>
  <unicode hex="2260"/>
  <outline>
    <contour>
      <point x="208" y="39" type="line" smooth="no"/>
      <point x="342" y="297" type="line" smooth="no"/>
      <point x="98" y="297" type="line" smooth="no"/>
      <point x="90" y="406" type="line" smooth="no"/>
      <point x="401" y="406" type="line" smooth="no"/>
      <point x="543" y="688" type="line" smooth="no"/>
      <point x="98" y="688" type="line" smooth="no"/>
      <point x="98" y="799" type="line" smooth="no"/>
      <point x="594" y="799" type="line" smooth="no"/>
      <point x="733" y="1054" type="line" smooth="no"/>
      <point x="860" y="1053" type="line" smooth="no"/>
      <point x="725" y="799" type="line" smooth="no"/>
      <point x="1000" y="799" type="line" smooth="no"/>
      <point x="1000" y="688" type="line" smooth="no"/>
      <point x="677" y="688" type="line" smooth="no"/>
      <point x="533" y="406" type="line" smooth="no"/>
      <point x="992" y="406" type="line" smooth="no"/>
      <point x="1000" y="297" type="line" smooth="no"/>
      <point x="477" y="297" type="line" smooth="no"/>
      <point x="343" y="38" type="line" smooth="no"/>
    </contour>
  </outline>
</glyph>
<glyph name="lessequal" format="1">
  <advance width="1093"/>
  <unicode hex="2264"/>
  <outline>
    <contour>
      <point x="94" y="1" type="line" smooth="no"/>
      <point x="94" y="168" type="line" smooth="no"/>
      <point x="998" y="168" type="line" smooth="no"/>
      <point x="998" y="1" type="line" smooth="no"/>
    </contour>
    <contour>
      <point x="998" y="295" type="line" smooth="no"/>
      <point x="94" y="613" type="line" smooth="no"/>
      <point x="94" y="750" type="line" smooth="no"/>
      <point x="998" y="1066" type="line" smooth="no"/>
      <point x="998" y="888" type="line" smooth="no"/>
      <point x="282" y="678" type="line" smooth="no"/>
      <point x="998" y="464" type="line" smooth="no"/>
    </contour>
  </outline>
</glyph>
<glyph name="greaterequal" format="1">
  <advance width="1093"/>
  <unicode hex="2265"/>
  <outline>
    <contour>
      <point x="1000" y="1" type="line" smooth="no"/>
      <point x="96" y="1" type="line" smooth="no"/>
      <point x="96" y="168" type="line" smooth="no"/>
      <point x="1000" y="168" type="line" smooth="no"/>
    </contour>
    <contour>
      <point x="96" y="295" type="line" smooth="no"/>
      <point x="96" y="464" type="line" smooth="no"/>
      <point x="812" y="678" type="line" smooth="no"/>
      <point x="96" y="888" type="line" smooth="no"/>
      <point x="96" y="1066" type="line" smooth="no"/>
      <point x="1000" y="750" type="line" smooth="no"/>
      <point x="1000" y="613" type="line" smooth="no"/>
    </contour>
  </outline>
</glyph>
<glyph name="lozenge" format="1">
  <advance width="997"/>
  <unicode hex="25ca"/>
  <outline>
    <contour>
      <point x="448" y="-30" type="line" smooth="no"/>
      <point x="66" y="670" type="line" smooth="no"/>
      <point x="452" y="1373" type="line" smooth="no"/>
      <point x="554" y="1373" type="line" smooth="no"/>
      <point x="931" y="672" type="line" smooth="no"/>
      <point x="543" y="-30" type="line" smooth="no"/>
    </contour>
    <contour>
      <point x="496" y="99" type="line" smooth="yes"/>
      <point x="496" y="97"/>
      <point x="803" y="667"/>
      <point x="803" y="669" type="curve" smooth="yes"/>
      <point x="803" y="669"/>
      <point x="502" y="1245"/>
      <point x="501" y="1246" type="curve" smooth="no"/>
      <point x="501" y="1245"/>
      <point x="196" y="674"/>
      <point x="194" y="674" type="curve" smooth="no"/>
    </contour>
  </outline>
</glyph>
<glyph name="uniFB02" format="1">
  <advance width="1273"/>
  <unicode hex="fb02"/>
  <outline>
    <contour>
      <point x="205" y="0" type="line" smooth="no"/>
      <point x="205" y="907" type="line" smooth="no"/>
      <point x="25" y="907" type="line" smooth="no"/>
      <point x="25" y="1032" type="line" smooth="no"/>
      <point x="205" y="1032" type="line" smooth="no"/>
      <point x="205" y="1069" type="line" smooth="yes"/>
      <point x="205" y="1320"/>
      <point x="274" y="1433"/>
      <point x="540" y="1433" type="curve" smooth="yes"/>
      <point x="717.762" y="1433"/>
      <point x="874.497" y="1418.59"/>
      <point x="1022" y="1404" type="curve" smooth="no"/>
      <point x="1022" y="310" type="line" smooth="yes"/>
      <point x="1022" y="162"/>
      <point x="1053" y="132"/>
      <point x="1241" y="132" type="curve" smooth="no"/>
      <point x="1241" y="-9" type="line" smooth="no"/>
      <point x="1159" y="-9" type="line" smooth="yes"/>
      <point x="842" y="-9"/>
      <point x="840" y="134"/>
      <point x="840" y="316" type="curve" smooth="yes"/>
      <point x="840" y="1281.09" type="line" smooth="no"/>
      <point x="817.274" y="1282.17"/>
      <point x="607.819" y="1292"/>
      <point x="570" y="1292" type="curve" smooth="yes"/>
      <point x="424" y="1292"/>
      <point x="387" y="1257"/>
      <point x="387" y="1032" type="curve" smooth="no"/>
      <point x="663" y="1032" type="line" smooth="no"/>
      <point x="663" y="907" type="line" smooth="no"/>
      <point x="388" y="907" type="line" smooth="no"/>
      <point x="388" y="0" type="line" smooth="no"/>
    </contour>
  </outline>
</glyph>
<glyph name="uniFB03" format="1">
  <advance width="1911"/>
  <unicode hex="fb03"/>
  <outline>
    <contour>
      <point x="1663" y="1186" type="curve" smooth="yes"/>
      <point x="1579" y="1186"/>
      <point x="1538" y="1247"/>
      <point x="1538" y="1307" type="curve" smooth="yes"/>
      <point x="1538" y="1368"/>
      <point x="1577" y="1428"/>
      <point x="1663" y="1428" type="curve" smooth="yes"/>
      <point x="1746" y="1428"/>
      <point x="1786" y="1367"/>
      <point x="1786" y="1307" type="curve" smooth="yes"/>
      <point x="1786" y="1247"/>
      <point x="1747" y="1186"/>
    </contour>
    <contour>
      <point x="205" y="0" type="line" smooth="no"/>
      <point x="205" y="907" type="line" smooth="no"/>
      <point x="25" y="907" type="line" smooth="no"/>
      <point x="25" y="1032" type="line" smooth="no"/>
      <point x="205" y="1032" type="line" smooth="no"/>
      <point x="205" y="1069" type="line" smooth="yes"/>
      <point x="205" y="1320"/>
      <point x="274" y="1433"/>
      <point x="540" y="1433" type="curve" smooth="yes"/>
      <point x="614" y="1433"/>
      <point x="618" y="1428"/>
      <point x="672" y="1422" type="curve" smooth="no"/>
      <point x="672" y="1281" type="line" smooth="no"/>
      <point x="672" y="1281"/>
      <point x="610" y="1292"/>
      <point x="570" y="1292" type="curve" smooth="yes"/>
      <point x="424" y="1292"/>
      <point x="387" y="1257"/>
      <point x="387" y="1032" type="curve" smooth="no"/>
      <point x="911" y="1032" type="line" smooth="no"/>
      <point x="911" y="1069" type="line" smooth="yes"/>
      <point x="911" y="1320"/>
      <point x="980" y="1433"/>
      <point x="1246" y="1433" type="curve" smooth="yes"/>
      <point x="1320" y="1433"/>
      <point x="1324" y="1428"/>
      <point x="1378" y="1422" type="curve" smooth="no"/>
      <point x="1378" y="1281" type="line" smooth="no"/>
      <point x="1378" y="1281"/>
      <point x="1316" y="1292"/>
      <point x="1276" y="1292" type="curve" smooth="yes"/>
      <point x="1130" y="1292"/>
      <point x="1093" y="1257"/>
      <point x="1093" y="1032" type="curve" smooth="no"/>
      <point x="1748" y="1032" type="line" smooth="no"/>
      <point x="1748" y="0" type="line" smooth="no"/>
      <point x="1565" y="0" type="line" smooth="no"/>
      <point x="1565" y="907" type="line" smooth="no"/>
      <point x="1094" y="907" type="line" smooth="no"/>
      <point x="1094" y="0" type="line" smooth="no"/>
      <point x="911" y="0" type="line" smooth="no"/>
      <point x="911" y="907" type="line" smooth="no"/>
      <point x="388" y="907" type="line" smooth="no"/>
      <point x="388" y="0" type="line" smooth="no"/>
    </contour>
  </outline>
</glyph>
<glyph name="uniFB04" format="1">
  <advance width="1901"/>
  <unicode hex="fb04"/>
  <outline>
    <contour>
      <point x="833" y="0" type="line" smooth="no"/>
      <point x="833" y="907" type="line" smooth="no"/>
      <point x="388" y="907" type="line" smooth="no"/>
      <point x="388" y="0" type="line" smooth="no"/>
      <point x="205" y="0" type="line" smooth="no"/>
      <point x="205" y="907" type="line" smooth="no"/>
      <point x="25" y="907" type="line" smooth="no"/>
      <point x="25" y="1032" type="line" smooth="no"/>
      <point x="205" y="1032" type="line" smooth="no"/>
      <point x="205" y="1069" type="line" smooth="yes"/>
      <point x="205" y="1320"/>
      <point x="274" y="1433"/>
      <point x="540" y="1433" type="curve" smooth="yes"/>
      <point x="614" y="1433"/>
      <point x="618" y="1428"/>
      <point x="672" y="1422" type="curve" smooth="no"/>
      <point x="672" y="1281" type="line" smooth="no"/>
      <point x="672" y="1281"/>
      <point x="610" y="1292"/>
      <point x="570" y="1292" type="curve" smooth="yes"/>
      <point x="424" y="1292"/>
      <point x="387" y="1257"/>
      <point x="387" y="1032" type="curve" smooth="no"/>
      <point x="833" y="1032" type="line" smooth="no"/>
      <point x="833" y="1069" type="line" smooth="yes"/>
      <point x="833" y="1320"/>
      <point x="902" y="1433"/>
      <point x="1168" y="1433" type="curve" smooth="yes"/>
      <point x="1346" y="1433"/>
      <point x="1502" y="1419"/>
      <point x="1650" y="1404" type="curve" smooth="no"/>
      <point x="1650" y="310" type="line" smooth="yes"/>
      <point x="1650" y="162"/>
      <point x="1681" y="132"/>
      <point x="1869" y="132" type="curve" smooth="no"/>
      <point x="1869" y="-9" type="line" smooth="no"/>
      <point x="1787" y="-9" type="line" smooth="yes"/>
      <point x="1470" y="-9"/>
      <point x="1468" y="134"/>
      <point x="1468" y="316" type="curve" smooth="yes"/>
      <point x="1468" y="1281" type="line" smooth="no"/>
      <point x="1445" y="1282"/>
      <point x="1236" y="1292"/>
      <point x="1198" y="1292" type="curve" smooth="yes"/>
      <point x="1052" y="1292"/>
      <point x="1015" y="1257"/>
      <point x="1015" y="1032" type="curve" smooth="no"/>
      <point x="1291" y="1032" type="line" smooth="no"/>
      <point x="1291" y="907" type="line" smooth="no"/>
      <point x="1016" y="907" type="line" smooth="no"/>
      <point x="1016" y="0" type="line" smooth="no"/>
    </contour>
  </outline>
</glyph>
